<?xml version="1.0" encoding="UTF-8"?>
<svg id="Capa_2" data-name="Capa 2" xmlns="http://www.w3.org/2000/svg" viewBox="0 0 563.13 225.56">
  <defs>
    <style>
      .cls-1 {
        fill: #170000;
      }
    </style>
  </defs>
  <g id="ART">
    <path class="cls-1" d="M561.58,0H1.54C.69,0,0,.69,0,1.54v14.89c0,.85.69,1.54,1.54,1.54h55.8c14.24,0,22.95,15.63,15.47,27.74L28.68,117.12c-7.62,12.33-8.73,27.32-2.97,40.1,5.02,11.14,14.63,19.64,26.37,23.32,4.19,1.31,8.46,1.94,12.68,1.94,15.27,0,29.89-8.24,37.54-22.19,3.26-5.95,5.08-12.59,5.31-19.28.03-.77-.58-1.41-1.35-1.41h-15.34c-.68,0-1.26.54-1.29,1.22-.18,3.78-1.22,7.42-3.09,10.83-5.65,10.31-17.88,15.25-29.08,11.74-6.95-2.18-12.41-6.99-15.36-13.55-3.3-7.33-2.6-16.02,1.88-23.27l31.49-50.96h.03s39.81-.01,39.81-.01c4.9,0,8.86,3.97,8.86,8.86v50.52c0,1.56,2.05,2.13,2.86.8l14.89-24.45c.15-.24.22-.52.22-.8V18s.01-.03.03-.03h60.49c10.04,0,18.18,8.14,18.18,18.18v6.67s-.02.02-.03.03c-11.88-.29-31.45,1.26-45.61,12.58-10.13,8.09-15.76,19.53-16.73,34-1.69,25.11,9.83,38.59,19.79,45.46,9.84,6.8,22.62,10.2,36.52,10.2,12.76,0,26.45-2.88,39.65-8.64.38-.15.75-.32,1.12-.49v.1c-1.36,12.26-5.63,21.59-12.8,27.86-7.73,6.76-18.01,9.39-27.58,10.12-1.45.11-2.57,1.31-2.57,2.76v12.2c0,1.6,1.35,2.88,2.94,2.77,12.9-.87,27.37-4.49,38.8-14.44,7.21-6.28,12.41-14.32,15.61-24.05h0s.01-.06.01-.06c1.71-5.23,2.84-10.94,3.39-17.14,0,0,.82-11,.74-17.18l-.38-10.43c.07-6.12-1.89-12.29-5.49-17.65-7.68-11.41-22.3-16.27-35.3-11.76-12.09,4.2-19.58,14.85-20.6,26.37-.07.77.54,1.44,1.32,1.44h15.39c.63,0,1.18-.45,1.29-1.08.4-2.21,1.37-4.34,2.96-6.14h0c2.66-2.84,6.09-4.28,9.56-4.28,2.92,0,5.87,1.02,8.4,3.1h0c3.98,3.71,5.23,8.95,3.62,13.69-1.08,3.18-3.33,5.76-6.34,7.26-.35.16-.69.31-1.04.46-11.73,5.71-24.98,6.82-28.9,7.02,0,0-.84.04-.98.04-11.42.47-21.84-1.79-29.14-6.83-8.91-6.15-12.97-16.07-12.07-29.47.63-9.34,3.89-16.25,9.97-21.13,14.99-12.03,41.81-8.11,42.06-8.08l7.6,1.19c1.46.23,2.78-.9,2.78-2.38V18s.01-.03.03-.03h34.44c10.04,0,18.18,8.14,18.18,18.18v90.18s0,21.83,0,21.83c0,1.58,2.08,2.17,2.91.83l14.83-23.99c.15-.25.23-.53.23-.83v-37.17s0-.16,0-.16c0-2.3,2.21-4,4.42-3.34,8.32,2.48,15.87,7.24,21.73,13.88l54.29,61.51c14.6,17.1,31.71,25.71,51.02,25.71,4,0,5.35-.06,8.9-.58.91-.13,1.59-.91,1.59-1.83,0-3.26,0-10.71,0-14.44,0-1.14-1.02-2.01-2.15-1.83-17.59,2.83-32.58-3.32-45.74-18.76l-44-49.85v-.05c12.41-6.13,20.97-18.91,20.97-33.65v-28.54c0-.9-.15-8.86-4.83-17.06l.03-.04h36.69c14.24,0,22.95,15.63,15.47,27.74l-25.23,40.82c-5.76,9.33-6.6,20.68-2.23,30.37,3.8,8.44,11.08,14.87,19.96,17.66,3.17.99,6.41,1.47,9.6,1.47,11.57,0,22.64-6.25,28.43-16.8,2.37-4.32,3.74-9.13,3.99-14,.05-.92-.67-1.67-1.59-1.67h-14.84c-.8,0-1.49.66-1.57,1.46-.19,1.94-.78,3.8-1.75,5.57-3.23,5.9-10.5,8.83-16.9,6.83-4.05-1.27-7.23-4.07-8.96-7.89-1.91-4.24-1.49-9.3,1.13-13.54l12.59-20.37h.03s41.8-.01,41.8-.01c4.9,0,8.86,3.97,8.86,8.86v139.55c0,1.55,2.04,2.13,2.86.81l14.88-24.08c.15-.24.23-.52.23-.81V27.94c0-5.51,4.46-9.97,9.97-9.97h52.49c.85,0,1.54-.69,1.54-1.54V1.54c0-.85-.69-1.54-1.54-1.54ZM124.16,57.59s-.01.03-.03.03h-37.5l-.03-.05,21.88-35.4c1.61-2.61,4.47-4.2,7.54-4.2h8.1s.03.01.03.03v39.59ZM362.49,63.61c0,9.54-6.87,17.49-15.92,19.2h-.03c-10.02-10.14-23.08-16.64-37.09-18.61l-.03-.03V18s.01-.03.03-.03h30.87c9.26,0,15.73,2.75,19.23,8.17,2.69,4.16,2.91,8.65,2.93,9.01v28.46ZM481.15,57.59s-.01.03-.03.03h-39.49l-.03-.05,21.88-35.4c1.61-2.61,4.47-4.2,7.54-4.2h10.1s.03.01.03.03v39.59Z"/>
  </g>
</svg>