<?xml version="1.0" encoding="UTF-8"?>
<svg id="Capa_2" data-name="Capa 2" xmlns="http://www.w3.org/2000/svg" viewBox="0 0 130.06 79.78">
  <defs>
    <style>
      .cls-1 {
        fill: #181818;
      }
    </style>
  </defs>
  <g id="Capa_1-2" data-name="Capa 1">
    <g>
      <g>
        <path class="cls-1" d="M58.05,64.8c.87,2.51,2.15,4.88,3.1,7.33.95,2.43,2.67,4.43,3.3,7.11-2.42.16-4.56.21-7.08.29-1.37-4.59-2.74-8.62-5.45-12.8-.7.2-.5.62-.49.92.04,3.11.11,6.22.17,9.33.02.9.07,1.56-.08,2.43-1.78.05-3.32-.19-5.96-.08-.45-.39-.33-.64-.34-1.1-.06-4.77,0-9.53-.24-14.3-.09-1.81.14-3.63.09-5.43-.07-2.76.07-5.52-.28-8.27-.04-.35-.17-.7.05-1.07.41-.43,1.02-.44,1.64-.35.92.13,1.83.05,2.75,0,1.84-.12,3.67-.03,5.47.34,2.06.43,3.48,1.43,4.5,2.83,1.59,2.2,2.15,4.55,1.98,7.06-.11,1.67-.68,3.17-1.97,4.51-.36.38-.71.77-1.16,1.26Z"/>
        <path class="cls-1" d="M127.92,55.25c-.65-1.58-2.06-2.99-3.71-4.33-.81-.66-1.92-1.19-3.15-1.61-2.46-.84-5.08-.93-7.76-.32-2.54.58-3.97,1.74-4.89,3.03-1.07,1.5-1.83,3.03-2.31,4.6-1.11,2.73-1.4,5.55-.77,8.39,0,.1-.01.19-.02.29-.07.8.11,1.59.35,2.38.16,1.03.48,2.05.95,3.04.68,2.49,2.21,4.82,5.07,6.89,1.13.82,2.44,1.4,4.17,1.76.45.1.89.16,1.32.2,1.19.32,2.57.31,3.84-.11,3.06-1.03,5.44-2.94,6.29-5.14,0,0,0-.01,0-.02.07-.11.14-.21.2-.32,2.12-3.62,2.57-7.35,2.54-11.06-.46-2.6-1.12-5.14-2.14-7.65Z"/>
        <path class="cls-1" d="M20.09,71.96c-2.98.53-6,.46-9.02.32-.29-.01-.6-.01-.91-.12,1.66-5.18,3.31-10.36,4.97-15.54,2.94.03,6.01.08,6.34-.07-.27-2.37.13-4.76.05-7.18-.71-.23-18.84-.28-20.37-.17.07,2.88.17,5.73.23,8.58-.16.08-.1,18.82-.19,21.67,1.53.11,2.9.11,4.27-.01,4.49-.39,8.97-.58,13.47,0,.59.08,1.21.12,1.92-.11.09-2.41.41-4.81.69-7.18-.63-.3-1.04-.25-1.44-.18Z"/>
        <path class="cls-1" d="M83.22,48.73c-.57-.11-1.13-.16-1.7-.16-2.29-.18-2.76.41-5.14.36-.37,1.28-.2,16.56-.48,20.85-.49,0-.97,0-1.46,0-1.02-4.37-3.17-19.6-3.8-20.93-1.66.1-2.7-.16-4.29-.03-1.18-.04-2.34-.08-3.46.12-.26.34-.15.52-.09.7.93,2.68,1.56,5.4,2.28,8.1.56,2.11,1.33,4.2,1.84,6.32,1.05,4.35,2.01,8.71,3.21,13.04.22.8-.03,1.65.82,2.43.62-.06,7.75-.22,10.34-.25.72-.5.52-1.04.5-1.56-.06-2.15.15-4.3.28-6.45.21-3.43.35-6.86.67-10.29.36-3.92.57-7.84.81-11.76,0-.16-.06-.3-.33-.48Z"/>
        <path class="cls-1" d="M27.74,48.61c2.59.04,5.19.15,7.76-.04.74.8.76,1.65.93,2.46.92,4.37,1.61,8.76,2.39,13.14.38,2.13,1,4.24,1.42,6.37.54,2.73,1,5.47,1.74,8.17.05.18.15.37-.11.7-1.84.3-3.77-.15-5.72-.08-.65-1.52-.84-3-1.55-4.37-.84-.28-1.62-.07-2.51-.03-.47,1.36-.31,2.73-.75,4.16-2.44-.13-4.85.56-7.16.02-.26-.19-.32-.33-.31-.49.4-3.92.78-7.84,1.32-11.75.47-3.42.76-6.85,1.11-10.28.22-2.15.53-4.29.56-6.45,0-.52.13-1.06.88-1.54Z"/>
        <path class="cls-1" d="M97.89,48.71c-3.02-.16-6.05-.27-9.08-.16-.11.25-.15.51-.15.77-.01.95-.08,1.9-.17,2.85,3.34.42,6.75.01,10.11-.05-.12-.63-.25-1.27-.38-1.9-.1-.5-.15-1.01-.34-1.52Z"/>
        <path class="cls-1" d="M103.78,78.75c-.74-2.62-1.2-5.27-1.74-7.91-.42-2.06-1.04-4.1-1.42-6.17-.6-3.25-1.15-6.5-1.78-9.75-3.48.04-7,.43-10.46.03-.09.79-.19,1.59-.27,2.38-.36,3.32-.65,6.64-1.11,9.95-.53,3.79-.91,7.58-1.32,11.37-.02.15.05.29.31.47,2.32.52,4.72-.15,7.16-.02.43-1.38.28-2.71.75-4.03.89-.04,1.67-.24,2.51.03.71,1.33.9,2.76,1.55,4.23,1.95-.06,3.88.37,5.72.08.25-.32.16-.5.11-.67Z"/>
      </g>
      <path class="cls-1" d="M58.9,18.27c-.7-2.17-.57-1.72-1.21-4.09-.69-2.52-1.29-4.96-1.81-7.32-.08-.35.22-.63.57-.73l2.28-.82s.43-.2.9-.49c.21-.13.31-.39.24-.63-.21-.72-.63-2.25-.91-3.2-.16-.53-.34-1.12-.97-.97-.36.09-.37.6-.36.64l-.12,2.09c-.02.54-.43.98-.97,1.04,0,0-10.19,1.66-14.85,2.44-.09.02-1.09.09-1.27.09-.37,0-.64-.27-.64-.27-.2.01-.14-3.5-.36-3.47,0,0-.28-.33-.73-.09-.12.06-1.29,4.37-1.35,4.42-.02.13-7.34.73-10.39.93-.34.05-.9.12-1.25.17-1.74.38-6.66.14-13.68,6.32-.01.01-4.38,4.66-4.39,4.67l-5.08,6.73c-.27.53-.54,1.05-.81,1.58-.96,2.16-1.51,4.13-1.57,5.73,0,.12-.64,4.38.54,4.25.1,0,.18-.05.23-.14.69-1.1,1.95-4.96,2.22-4.67.11-.05.38.08.6.23.22.15.37.38.42.64.36,1.93,1.8,11.31,1.85,11.45.01.06.05.12.1.16.1.07.23.15.36.11.19-.09,1.23-.29,1.31-.52.03-.03.05-.07.05-.11l1.14-7.79.1.02,2.1,8.28s.04.09.08.12c.14.25,1.34.16,1.57.2.12.01.22-.08.31-.15.04-.04.07-.09.08-.14l1.02-7.25c0-.05.03-.1.07-.13.15-.43,17.99-1.41,18.27-1.58.06,0,.11.01.15.05l.13.1s.07.08.08.14l1.7,8.66s.03.09.07.13c.12.26,1.48.21,1.71.27.12.02.22-.07.31-.14.04-.03.07-.08.09-.13l2.14-9.56s.04-.09.07-.12c.16-.19.4-.2.57-.02.04.03.07.08.09.13l2.41,9.1s.04.09.08.12c.49.26.58.17.94.17.12,0,.89-.15.97-.22.04-.03.07-.08.07-.14l1.69-10.78v.07s2.72-6.44,2.72-6.44c0,0,0-.01,0-.02,1.27-2.45,1.55-2.99,1.63-3l6.01-1.19c.2-.04,3.31-.73,3.41-.9.02-.03.04-.06.05-.1.23-.51.07-1.01,0-1.17,0-.01-.82-2.74-.83-2.76Z"/>
      <path class="cls-1" d="M69.09,21.02c-.06.16-.23.66,0,1.17.02.04.03.07.05.1.1.17,3.21.87,3.41.9l6.01,1.19c.08.01.36.55,1.63,3,0,0,0,.01,0,.02l2.73,6.44v-.07s1.68,10.78,1.68,10.78c0,.05.03.1.07.14.08.07.86.23.97.22.36,0,.46.09.94-.17.04-.03.07-.07.08-.12l2.41-9.1c.01-.05.04-.1.09-.13.17-.17.41-.17.57.02.04.03.06.07.07.12l2.14,9.56c.01.05.04.1.09.13.09.07.19.15.31.14.23-.06,1.59,0,1.71-.27.04-.03.06-.08.07-.13l1.7-8.66c.01-.05.04-.1.08-.14l.13-.1s.1-.05.15-.05c.27.16,18.12,1.14,18.27,1.58.04.04.06.08.07.13l1.02,7.25c0,.06.04.11.08.14.09.07.19.17.31.15.23-.05,1.44.05,1.57-.2.04-.03.06-.07.08-.12l2.1-8.28.1-.02,1.14,7.79s.02.08.05.11c.08.23,1.12.43,1.31.52.13.05.26-.04.36-.11.06-.03.09-.09.1-.16.05-.14,1.49-9.53,1.85-11.45.05-.26.2-.49.42-.64.22-.15.49-.28.6-.23.27-.29,1.53,3.57,2.22,4.67.05.08.13.15.23.14,1.18.13.54-4.12.54-4.25-.06-1.6-.61-3.57-1.57-5.73-.27-.53-.54-1.05-.81-1.58l-5.08-6.73s-4.38-4.66-4.39-4.67c-7.02-6.18-11.94-5.94-13.68-6.32-.34-.05-.9-.12-1.25-.17-3.05-.2-10.37-.8-10.39-.93-.06-.05-1.23-4.35-1.35-4.42-.45-.24-.73.09-.73.09-.22-.03-.17,3.48-.36,3.47,0,0-.27.27-.64.27-.18,0-1.18-.08-1.27-.09-4.66-.78-14.85-2.44-14.85-2.44-.53-.06-.94-.5-.97-1.04l-.12-2.09s0-.55-.36-.64c-.62-.16-.81.44-.97.97-.28.95-.7,2.48-.91,3.2-.07.24.03.5.24.63.48.29.88.48.9.49l2.28.82c.35.1.65.37.57.73-.52,2.35-1.12,4.8-1.81,7.32-.65,2.37-.52,1.92-1.21,4.09,0,.01-.82,2.74-.83,2.76Z"/>
    </g>
  </g>
</svg>