<?xml version="1.0" encoding="UTF-8"?>
<svg id="Capa_2" data-name="Capa 2" xmlns="http://www.w3.org/2000/svg" viewBox="0 0 406.09 232.42">
  <defs>
    <style>
      .cls-1 {
        fill: #1d1d1b;
      }
    </style>
  </defs>
  <g id="Layer_2" data-name="Layer 2">
    <g>
      <g>
        <path class="cls-1" d="M39.41,31.83v58.64h12.55v14.45h-12.55v73.09h-14.27V17.39h26.83v14.45h-12.55Z"/>
        <path class="cls-1" d="M98.91,173.2c-2.06-3.1-3.1-7.79-3.1-14.1V43.01h14.27v115.57c0,2.18.4,4.04,1.2,5.59.8,1.55,2,2.32,3.61,2.32,1.26,0,2.38-.69,3.35-2.06.97-1.38,1.46-3.38,1.46-6.02V43.01h14.1v122.79c0,2.75.09,5.02.26,6.79.17,1.78.54,3.58,1.12,5.42h-13.59c-.58-.8-1.15-2.58-1.72-5.33-.92,1.72-2.15,3.1-3.7,4.13-1.55,1.03-3.76,1.55-6.62,1.55-4.7,0-8.25-1.72-10.66-5.16Z"/>
        <path class="cls-1" d="M196.94,179.05c-12.04,0-18.06-6.3-18.06-18.92V60.9c0-12.61,6.02-18.92,18.06-18.92h2.06c11.92,0,17.89,6.31,17.89,18.92v20.81c0,4.24-.17,7.71-.52,10.4-.34,2.7-.98,5.19-1.89,7.48-.92,2.41-2.24,4.82-3.96,7.22-1.72,2.41-4.13,5.22-7.22,8.43-4.24,4.59-6.99,8.17-8.25,10.75-1.26,2.58-1.89,5.93-1.89,10.06v22.53c0,2.06.4,3.87,1.2,5.42.8,1.55,2,2.32,3.61,2.32,1.38,0,2.52-.69,3.44-2.06.92-1.38,1.38-3.38,1.38-6.02v-28.03h14.1v29.92c0,12.61-5.96,18.92-17.89,18.92h-2.06ZM197.97,54.71c-1.61,0-2.81.77-3.61,2.32-.8,1.55-1.2,3.35-1.2,5.42v42.82l.34-.34c4.01-4.24,6.56-7.68,7.65-10.32,1.09-2.64,1.63-6.13,1.63-10.49v-21.33c0-2.64-.46-4.64-1.38-6.02-.92-1.38-2.06-2.06-3.44-2.06Z"/>
        <path class="cls-1" d="M275.92,202.19c-4.91,0-9.01-1.26-12.28-3.78-3.65-2.65-5.48-6.42-5.48-11.34s1.7-8.31,5.1-10.2c-1.13-1.51-2.02-2.9-2.65-4.16-.76-1.89-1.13-3.78-1.13-5.67,0-3.65,1.51-7.75,4.53-12.28-3.65-3.4-5.48-8.75-5.48-16.06V48.78c0-13.85,6.61-20.78,19.84-20.78h2.27c6.55,0,11.52,1.77,14.93,5.29.76-1.51,1.86-2.77,3.31-3.78,1.45-1.01,3.05-1.51,4.82-1.51h.57v13.6h-.57c-1.13,0-1.95.73-2.46,2.17-.51,1.45-.82,3.68-.95,6.71l.19,71.6c-.13,6.3-1.54,11.93-4.25,16.91-2.71,4.98-6.21,9.79-10.49,14.45-4.03,4.16-6.61,7.02-7.75,8.6-1.13,1.58-1.26,2.81-.38,3.68.38.38,1.13.63,2.27.76,1.13.13,2.39.19,3.78.19,4.91,0,9.32,1.39,13.22,4.16,4.79,3.4,7.18,7.81,7.18,13.23,0,5.92-1.95,10.45-5.86,13.6-3.53,3.02-8.63,4.53-15.3,4.53h-6.99ZM276.29,180.84c-1.89,0-3.47.44-4.72,1.32-1.26.88-1.89,1.95-1.89,3.21s.63,2.33,1.89,3.21c1.26.88,2.83,1.32,4.72,1.32h8.12c1.76,0,3.31-.44,4.63-1.32,1.32-.88,1.98-1.95,1.98-3.21s-.66-2.33-1.98-3.21c-1.32-.88-2.87-1.32-4.63-1.32h-8.12ZM279.51,41.98c-1.64,0-2.93.85-3.87,2.55-.94,1.7-1.42,3.68-1.42,5.95v86.72c0,2.27.25,3.97.76,5.1,3.9-4.16,6.52-7.75,7.84-10.77,1.32-3.02,1.98-6.74,1.98-11.15V50.86c0-2.9-.51-5.1-1.51-6.61-1.01-1.51-2.27-2.27-3.78-2.27Z"/>
        <path class="cls-1" d="M361,179.22c-12.04,0-18.06-6.3-18.06-18.92V60.9c0-12.61,6.02-18.92,18.06-18.92h2.06c11.92,0,17.89,6.31,17.89,18.92v99.4c0,12.61-5.96,18.92-17.89,18.92h-2.06ZM362.03,54.71c-1.49,0-2.67.77-3.53,2.32-.86,1.55-1.29,3.35-1.29,5.42v95.96c0,2.64.46,4.64,1.38,6.02.92,1.38,2.06,2.06,3.44,2.06,1.49,0,2.67-.77,3.53-2.32.86-1.55,1.29-3.35,1.29-5.42V62.79c0-2.64-.46-4.64-1.38-6.02-.92-1.38-2.06-2.06-3.44-2.06Z"/>
        <rect class="cls-1" width="406.09" height="3.11"/>
        <path class="cls-1" d="M312.75,193.74h93.33v2.68h-93.33v-2.68h0ZM0,193.74h248.76v2.68H0v-2.68Z"/>
      </g>
      <g>
        <path class="cls-1" d="M3.99,231.92v-17.69h5.18c1.85,0,3.25.37,4.2,1.11.95.74,1.42,1.83,1.42,3.26,0,.82-.23,1.52-.7,2.09-.47.57-1.23,1.07-2.29,1.5v.25c1.22.3,2.13.82,2.74,1.54s.91,1.66.91,2.8c0,1.59-.5,2.84-1.49,3.76-.99.92-2.35,1.38-4.07,1.38H3.99ZM5.68,215.83v5.75h3.26c1.47,0,2.52-.22,3.16-.67s.96-1.17.96-2.18-.32-1.77-.95-2.22c-.63-.45-1.69-.68-3.18-.68h-3.26ZM5.68,230.32h3.77c1.39,0,2.45-.3,3.17-.91.72-.61,1.08-1.49,1.08-2.65s-.38-2.09-1.14-2.69-1.91-.89-3.44-.89h-3.44v7.14Z"/>
        <path class="cls-1" d="M27.16,231.92v-6.33l-6.19-11.35h1.84l5.04,9.19h.3l5.04-9.19h1.87l-6.19,11.35v6.33h-1.7Z"/>
        <path class="cls-1" d="M54.28,231.92v-16.09h-5.39v-1.6h12.5v1.6h-5.39v16.09h-1.73Z"/>
        <path class="cls-1" d="M68.12,231.92v-17.69h1.69v7.65h7.39v-7.65h1.7v17.69h-1.7v-8.44h-7.39v8.44h-1.69Z"/>
        <path class="cls-1" d="M88.92,231.92v-17.69h10.48v1.6h-8.77v6.02h7.56v1.6h-7.56v6.87h9.06v1.6h-10.76Z"/>
        <path class="cls-1" d="M126.98,232.42l-.38-2.67h-.22c-.52.92-1.12,1.59-1.8,2.02-.68.43-1.49.64-2.43.64-2.04,0-3.58-.78-4.61-2.35-1.03-1.57-1.54-3.9-1.54-7s.51-5.38,1.53-6.97c1.02-1.59,2.51-2.38,4.48-2.38,1.33,0,2.44.39,3.32,1.16.88.78,1.44,1.86,1.69,3.26l-1.47.66c-.22-1.18-.62-2.06-1.21-2.64s-1.35-.87-2.3-.87c-1.45,0-2.53.64-3.22,1.92-.7,1.28-1.05,3.23-1.05,5.86s.36,4.67,1.09,5.91c.72,1.24,1.87,1.87,3.43,1.87,1.23,0,2.17-.46,2.83-1.38.66-.92,1.04-2.3,1.15-4.13h-4.39v-1.6h5.77v8.69h-.65Z"/>
        <path class="cls-1" d="M136.39,231.92v-17.69h4.77c1.83,0,3.28.45,4.36,1.35,1.07.9,1.61,2.1,1.61,3.61,0,1.31-.4,2.4-1.21,3.26-.81.87-1.92,1.41-3.35,1.64l5.07,7.83h-1.95l-4.95-7.7h-2.63v7.7h-1.71ZM138.09,215.83v6.74h2.47c1.59,0,2.78-.28,3.58-.85.8-.56,1.2-1.41,1.2-2.54s-.4-1.96-1.19-2.52c-.79-.56-1.99-.84-3.59-.84h-2.47Z"/>
        <path class="cls-1" d="M154.55,231.92v-1.04h1.78v-15.61h-1.78v-1.04h5.29v1.04h-1.77v15.61h1.77v1.04h-5.29Z"/>
        <path class="cls-1" d="M168.05,231.92v-17.69h1.69v16.09h8.65v1.6h-10.34Z"/>
        <path class="cls-1" d="M185.35,231.92v-17.69h1.69v16.09h8.65v1.6h-10.34Z"/>
        <path class="cls-1" d="M201.38,231.92v-1.04h1.78v-15.61h-1.78v-1.04h5.29v1.04h-1.77v15.61h1.77v1.04h-5.29Z"/>
        <path class="cls-1" d="M214.6,231.92v-17.69h3.16l6.28,15.91h.46v-15.91h1.69v17.69h-3.14l-6.3-15.91h-.45v15.91h-1.7Z"/>
        <path class="cls-1" d="M245.19,232.42l-.38-2.67h-.22c-.52.92-1.12,1.59-1.8,2.02-.68.43-1.49.64-2.43.64-2.04,0-3.58-.78-4.61-2.35-1.03-1.57-1.54-3.9-1.54-7s.51-5.38,1.53-6.97c1.02-1.59,2.51-2.38,4.48-2.38,1.33,0,2.44.39,3.32,1.16.88.78,1.44,1.86,1.69,3.26l-1.47.66c-.22-1.18-.62-2.06-1.21-2.64s-1.35-.87-2.3-.87c-1.45,0-2.53.64-3.22,1.92-.7,1.28-1.05,3.23-1.05,5.86s.36,4.67,1.09,5.91c.72,1.24,1.87,1.87,3.43,1.87,1.23,0,2.17-.46,2.83-1.38.66-.92,1.04-2.3,1.15-4.13h-4.39v-1.6h5.77v8.69h-.65Z"/>
        <path class="cls-1" d="M263.56,231.92v-17.69h5.18c1.85,0,3.25.37,4.2,1.11.95.74,1.42,1.83,1.42,3.26,0,.82-.23,1.52-.7,2.09-.47.57-1.23,1.07-2.29,1.5v.25c1.22.3,2.13.82,2.74,1.54s.91,1.66.91,2.8c0,1.59-.5,2.84-1.49,3.76-.99.92-2.35,1.38-4.07,1.38h-5.89ZM265.26,215.83v5.75h3.26c1.47,0,2.52-.22,3.16-.67s.96-1.17.96-2.18-.32-1.77-.95-2.22c-.63-.45-1.69-.68-3.18-.68h-3.26ZM265.26,230.32h3.77c1.39,0,2.45-.3,3.17-.91.72-.61,1.08-1.49,1.08-2.65s-.38-2.09-1.14-2.69-1.91-.89-3.44-.89h-3.44v7.14Z"/>
        <path class="cls-1" d="M280.53,231.92l6.73-17.69h2l6.71,17.69h-1.78l-1.59-4.24h-8.67l-1.59,4.24h-1.8ZM284.54,226.08h7.46l-3.57-9.51h-.32l-3.57,9.51Z"/>
        <path class="cls-1" d="M301.01,228.26l1.59-.74c.35,1.09.87,1.92,1.58,2.47.71.55,1.59.83,2.64.83s1.8-.31,2.4-.93c.59-.62.89-1.45.89-2.5,0-.75-.19-1.38-.56-1.9-.38-.52-.95-.95-1.74-1.3l-2.79-1.22c-1.17-.52-2.03-1.16-2.57-1.91-.54-.75-.82-1.69-.82-2.81,0-1.39.42-2.48,1.25-3.29.84-.81,1.98-1.21,3.43-1.21,1.13,0,2.1.29,2.93.88.82.58,1.53,1.49,2.12,2.72l-1.5.77c-.39-.95-.9-1.66-1.55-2.15-.65-.49-1.4-.73-2.27-.73s-1.53.27-2.06.82c-.53.55-.8,1.25-.8,2.11,0,.62.18,1.19.54,1.7.36.51.87.92,1.53,1.24l2.85,1.33c1.35.62,2.3,1.29,2.83,2.02.54.73.81,1.68.81,2.85,0,1.54-.46,2.77-1.38,3.69-.92.92-2.16,1.37-3.74,1.37-1.4,0-2.58-.35-3.53-1.04-.96-.69-1.66-1.72-2.12-3.07Z"/>
        <path class="cls-1" d="M322.96,231.92v-16.09h-5.39v-1.6h12.5v1.6h-5.39v16.09h-1.73Z"/>
        <path class="cls-1" d="M333.76,231.92l6.73-17.69h2l6.71,17.69h-1.78l-1.59-4.24h-8.67l-1.59,4.24h-1.8ZM337.77,226.08h7.46l-3.57-9.51h-.32l-3.57,9.51Z"/>
        <path class="cls-1" d="M355.75,231.92v-17.69h4.77c1.83,0,3.28.45,4.36,1.35,1.07.9,1.61,2.1,1.61,3.61,0,1.31-.4,2.4-1.21,3.26-.81.87-1.92,1.41-3.35,1.64l5.07,7.83h-1.95l-4.95-7.7h-2.63v7.7h-1.71ZM357.45,215.83v6.74h2.47c1.59,0,2.78-.28,3.58-.85.8-.56,1.2-1.41,1.2-2.54s-.4-1.96-1.19-2.52c-.79-.56-1.99-.84-3.59-.84h-2.47Z"/>
        <path class="cls-1" d="M374.08,231.92v-17.69h4.3c2.41,0,4.24.75,5.48,2.24,1.24,1.5,1.86,3.7,1.86,6.6s-.62,5.1-1.86,6.6c-1.24,1.5-3.07,2.24-5.48,2.24h-4.3ZM375.77,230.32h2.48c1.94,0,3.38-.59,4.3-1.76.92-1.17,1.38-3,1.38-5.48s-.46-4.31-1.38-5.48c-.92-1.17-2.36-1.76-4.3-1.76h-2.48v14.49Z"/>
        <path class="cls-1" d="M392.22,228.26l1.59-.74c.35,1.09.87,1.92,1.58,2.47.71.55,1.59.83,2.64.83s1.8-.31,2.4-.93c.59-.62.89-1.45.89-2.5,0-.75-.19-1.38-.56-1.9-.38-.52-.95-.95-1.74-1.3l-2.79-1.22c-1.17-.52-2.03-1.16-2.57-1.91-.54-.75-.82-1.69-.82-2.81,0-1.39.42-2.48,1.25-3.29.84-.81,1.98-1.21,3.43-1.21,1.13,0,2.1.29,2.93.88.82.58,1.53,1.49,2.12,2.72l-1.5.77c-.39-.95-.9-1.66-1.55-2.15-.65-.49-1.4-.73-2.27-.73s-1.53.27-2.06.82c-.53.55-.8,1.25-.8,2.11,0,.62.18,1.19.54,1.7.36.51.87.92,1.53,1.24l2.85,1.33c1.35.62,2.3,1.29,2.83,2.02.54.73.81,1.68.81,2.85,0,1.54-.46,2.77-1.38,3.69-.92.92-2.16,1.37-3.74,1.37-1.4,0-2.58-.35-3.53-1.04-.96-.69-1.66-1.72-2.12-3.07Z"/>
      </g>
    </g>
  </g>
</svg>