<?xml version="1.0" encoding="UTF-8"?>
<svg id="Capa_2" data-name="Capa 2" xmlns="http://www.w3.org/2000/svg" viewBox="0 0 311.81 458.13">
  <g id="Art">
    <g>
      <path d="M63.36,446.87c-.01-.33-.19-.51-.26-.83-.27-.97-.13-1.95-.05-2.8.04-.46.15-.66.14-.92.05-.2-.07-.39-.03-.65.06,0,.17-.07.23-.08,0-.06-.01-.26-.01-.32-.02-.59-.4-1.35-.54-2.19-.07-.39-.15-.97-.17-1.43-.01-.33.09-.66.08-.98-.07-.39-.26-.7-.33-1.03.32-.6,0-1.37.03-2.22.04-.46-.41-.31-.32-.77.05-.26.45-.15.44-.48.04-.53.36-1,.4-1.59-.02-.52-.22-1.1-.3-1.75-.03-.85.21-2.03.11-3.01-.07-.39-.26-.7-.27-1.09.05-.26.04-.33.1-.46.2-.86-.13-7.69-.16-8.41-.03-.78,0-1.63.02-2.41-.02-.52-.04-1.11,0-1.63.05-.2.16-.33.15-.53,0-.13-.07-.19-.07-.39-.08-.59.01-1.18-.06-1.63-.07-.45-.32-.77-.33-1.22-.02-.46.08-.98.11-1.51-.12-.19-.68.1-.7-.29-.29-.18-.04-.91-.32-.9-.88-.35-1.91-.29-3.11-.23-.86.04-2.01.04-2.74.27-.33.34-.54.81-.87,1.15-.13.99-.04,2.03.06,3.06.05,1.3.15,2.28.18,3.19,0,1.57.08,9.33.14,10.89.04.91.31,1.94.34,2.92-.03.78,0,1.56.09,2.41.12,1.56,0,3.13.07,4.69.02.59.17,1.3.19,2.01-.04.4-.08.79-.07,1.18.01.32.19.58.21.9.01.33.08.65.04.91.01.26-.15.46-.14.73.02.52.21.97.23,1.49.02.39-.02.85,0,1.24-.04.4-.08.92-.07,1.24,0,.13.13.32.19.45.47,1.74-.43,3.54.15,5.21-.49.61-.17,1.38-.03,2.09.22,1.23.22,2.6.65,3.36.51-.16.87.22,1.39.32,1.27.2,2.74-.27,4.18-.34.23.05-.13-.45.16-.4.17,0,.34-.02.4-.15.04-.4.44-.55.6-.68.22-.21.32-.73.36-1.19-.01-.26-.19-.45-.26-.77-.23-1.42.05-3.07-.17-4.43Z"/>
      <path d="M98.24,446.02c-.01-.33-.03-.72-.04-1.04-.46-.04-.83-.55-1.35-.65-.58-.04-1.31.2-2.06.23-.17,0-.41-.11-.52-.1-.46.09-.79.23-1.25.26-1.88.29-3.95.27-5.6.61-.02-.46-.25-.64-.33-1.03h-.06c-.07-.19-.13-.38-.09-.71.16-.4.5-.48.65-.88.05-.07-.07-.26-.01-.33,0-.13.11-.14.16-.27.1-.46.09-.72.19-.92.21-.4.26-.73.48-1,.03-.85.2-2.23.63-2.97-.07-.39.03-.66.02-.91.11,0,.11-.14.1-.27.11-.14.27-.34.38-.48-.08-.52.25-.86.41-1.19.16-.4.31-.8.53-1.07-.02-.52.14-.79.12-1.31.23-.08.27-.47.32-.6.05-.2.21-.4.27-.47.1-.4-.09-.78.19-.99-.28-1.22.62-1.86.92-2.85.4-.02.32-.54.48-.81,0-.06.11-.14.17-.14.16-.2.09-.66.38-.61-.08-.58.08-.92.3-1.06-.08-.52.09-.66.01-1.11.39-.34.3-.99.46-1.52.05-.2.33-.34.15-.6.23-.08.22-.34.32-.6.21-.53.37-.93.52-1.46.06,0,0-.13,0-.2.05-.2.27-.34.32-.47.26-.6.52-1.33.62-1.79.1-.4.26-.73.3-.99,0,0,.17-.08.17-.14.05-.13.04-.4.1-.46,0-.13.11-.2.04-.46.55-.68.79-1.67,1.16-2.54,0,0,.15-.46.19-.92.1-.46.2-.86.2-.86,0,0,.16-.27.21-.47h.06c0-.13-.01-.26-.01-.33-.01-.26.15-.6-.03-.78-.12-1.62-.3-3.18-.23-4.49-.29-.18-.31-.64-.5-.89,0-.06-.23.01-.23-.05-.12-.13.04-.46-.24-.31-.12-.06-.4-.05-.52.03v.19c.01.07-.11,0-.16,0-.62.36-1.32,0-2.07-.03,0,0-.17.14-.34.15-.63-.03-1.55.08-2.06.1-.17,0-.41-.17-.58-.16-.11,0-.17.14-.28.08-.29.01-.63-.03-.98-.01-.69.03-1.66.15-2.06.1-.35-.05-.63.03-.92.05-.57.03-1.5-.05-2.12-.02-.23.01-.4-.05-.62.16-.24-.25-.64-.16-.87-.15-.69.03-1.61-.05-1.94.36-.64-.23-1.31.33-1.7.61-.03.78.17,1.43.08,2.15-.04.33-.21.6-.25.93.02.59.48,2.06.66,2.31.3.31.6.56,1.01.86.41.24.76.42,1.1.4.4-.02.79-.43,1.19-.52.28-.08.69.03.98.02.34-.02.62-.23.91-.24.23-.01.46.04.69.1.69-.03,1.2-.06,1.6-.08.57-.09,1.03-.12,1.43-.07l.42.44s.38.76.39,1.02c0,0-.14.79-.3,1.06-.05.13-.04.33-.04.53,0,.06,0,.19.01.26-.05.13-.11.2-.22.27-.11.07-.28.08-.39.28-.05.33.03.85-.37.8.09.78-.09.66-.12,1.31-.16.2-.21.4-.33.47-.16.27-.25.8-.36,1.13-.11.2-.33.47-.43.68-.05.13-.04.33-.15.53-.05.13-.16.2-.22.34-.1.27-.09.66-.14.92-.1.33-.21.6-.31.86,0,.07,0,.2.01.26l-.17.08c-.05.07,0,.2.01.26,0,.07-.17.07-.17.14-.26.6-.36,1.19-.32,1.97-.33.34-.31.87-.35,1.32-.06.07-.16.2-.22.27,0,.19.02.59-.03.78-.05.2-.16.27-.21.4-.06.07.01.26.01.33,0,.06-.17.07-.17.14-.16.33-.2.66-.31.93-.1.27-.03.65-.13.98-.22.21-.32.47-.37.8-.16.33-.14.85-.24,1.19,0,.13-.16.27-.21.4-.06.07.01.26.01.33,0,.07-.17.07-.17.14-.05.13-.1.27-.15.46-.05.13-.22.34-.27.47-.05.33-.03.72-.07,1.05-.05.2-.22.21-.27.4-.05.2.02.39-.04.59-.1.27-.2.66-.31.93-.1.33-.2.66-.43.87.03.72-.3,1.19-.46,1.52,0,.13,0,.19-.04.39-.05.2-.21.4-.15.66-.21.4-.55.68-.46,1.46-.39.22-.55.74-.64,1.34-.28.28-.54.74-.52,1.4,0,0-.26.73-.25.93.01.26.09.78.03.85-.05.13-.06.07-.32.67-.11.2-.09.59-.2.92.12.19.19.45.26.7-.22.4-.19,1.05-.11,1.7.07.39-.34.21-.27.53.31.57.05,1.37.25,2.01.13.45.66.75.79,1.07.57-.03,1.1.27,1.68.37.58.04,1.15-.06,1.72-.02.18.05.41.17.64.16,1.04.01,1.99-.56,3.08-.42.23-.01.18.32.47.24.97-.18,1.93-.49,2.79-.53.06,0,.24.18.29.18.17,0,.34-.15.45-.09.17,0,.35.11.52.17.23-.01.4-.15.62-.16.63-.03,1.16.27,1.62.24.11,0,.34-.21.34-.21.22-.14.29.18.52.04.11,0,.11-.2.28-.21.23-.01.46.11.64.1.23-.01.46-.02.69-.03.33-.34.74-.3,1.07-.45.34-.21.55-.61.65-.88.05-.07.17-.14.22-.21.1-.4-.11-1.23-.02-1.95.05-.2.15-.4.15-.6.03-.65-.1-1.23.04-1.83-.07-.39-.42-.37-.49-.76Z"/>
      <path d="M136,447.04c-.07-.39.03-.59.13-.92-.3-.38-.43-.83-.62-1.27-.07-.26-.13-.32-.19-.51-.02-.46.08-.92.06-1.31-.08-.65-.39-1.22-.24-1.75-.12-.25-.25-.44-.31-.7-.14-.65-.16-2.54-.21-4.03-.02-.46-.52-1.47-.52-1.47,0,0-.16-1.17-.35-1.55-.19-.32.02-.85-.05-1.17-.07-.39-.33-1.03-.34-1.42-.02-.39.03-.78.07-1.11-.01-.33.21-.6.14-.92-.07-.32-.13-.45-.49-.83-.36-.37-.3-.38-.37-.63-.07-.32-.2-.77-.39-1.15-.19-.45-.07-1.89-.07-1.89-.06-.06-.12-.19-.13-.32-.06-.06-.06-.13-.06-.19-.07-.19-.13-.32-.13-.45-.01-.33.15-.46.08-.79-.02-.59-.19-.51-.32-.9-.13-.38-.11-1.23-.24-1.81-.2-.64-.25-.64-.39-1.16-.07-.32-.08-.65-.09-.84.06-.07.05-.13.05-.26.03-.59-.27-1.16-.35-1.68,0-.13.1-.4.09-.53-.07-.39-.26-.77-.34-1.22-.07-.45-.04-.98-.17-1.43-.07-.32-.25-.57-.26-.84-.07-.39-.03-.78-.05-1.17-.14-.77-.52-1.54-.44-2.39-.18-.25-.31-.57-.44-.89-.07-.32.1-.4.09-.53,0,0-.12-.06-.12-.19-.01-.26-.2-.58-.03-.78-.12-.12-.19-.32-.25-.51-.12-.19-.13-.51-.2-.71-.06,0-.18-.06-.23-.05-.12-.19-.24-.38-.25-.64-.93-.21-1.15-1.44-1.96-1.79-.24-.12-.52-.04-.81-.15-.73.43-1.48.34-2.4.19-.23.01-.46.02-.69-.03-.23-.05-.41-.18-.64-.16-.75-.03-1.07.44-1.59.54-.28.08-.41-.18-.64-.23.01.26-.1.4-.33.41.01.33.02.59.04.91-.16.2-.15.46-.32.6.19.45-.14.66-.24,1.06-.09.53-.01,1.11-.11,1.64-.05.2-.21.4-.26.6-.05.26-.04.53-.14.79-.1.53-.31.99-.4,1.45-.14.79-.22,1.64-.42,2.37-.05.26-.15.46-.26.73,0,0,0,.06,0,.13-.05.2-.1.4-.15.59v.06c-.14.73.04.91-.15,2.03-.18,1.18-.3,1.13-.28,1.52-.04.39-.12,1.38-.44,1.98-.16.33-.2.79-.18,1.25.04,1.11.04,2.35-.01,2.55-.04.4-.38.61-.48.94-.05.2-.04.53-.03.72-.05.27-.15.53-.2.73-.04.46-.02,1.04-.11,1.51,0,.06-.1.27-.16.33-.2.73-.34,1.58-.43,2.18-.24,1.19-.36,2.56-.54,3.68-.1.27-.21.53-.25.8-.04.4.03.85-.07,1.24-.04.33-.25.8-.3.99-.1.33-.15.53-.26.73-.1.46.09,3.72-.07,4.12.23-.01.46-.02.47.3-.17.07-.22.27-.27.4-.17.07-.46.02-.45.35.07.39-.26.73-.3,1.19-.05.26.07.45.03.72-.05.27-.21.4-.26.6.01.26.08.58.03.85.01.26-.1.46-.14.72-.02.91,0,1.3-.45,1.72.08.59-.25,1.06-.28,1.52-.05.27.08.58.09.85,0,.13-.1.33.02.52-.05.2-.27.27-.32.47.63-.1.88.48,1.29.65.47.24.87.15,1.5.05.34-.08.74-.17,1.08-.19.35.05.58.23.87.28.46.04.8-.1,1.15,0,.16-.4.56-.42.89-.63.34-.15.68-.36.95-.57-.08-.65-.3-1.75-.09-2.41.05-.13.15-.53.32-.54-.1-1.04.52-1.4.67-2.06.09-.66-.05-1.37-.02-2.02.05-.13.16-.33.15-.53.1-.27.03-.72.13-1.11.11-.2.22-.27.27-.47.05-.26-.02-.52-.03-.72.05-.2.16-.4.15-.66.04-.46-.04-3.91-.06-4.37.49-.68.68-1.67,1.35-2.09.52-.03,1.14-.32,1.48-.4.4-.08.91-.11,1.32-.13.86-.11,1.71-.22,2.36.14.33,1.09.62,5.52.89,6.61.14.58.15.91.28,1.23.06.13.18.25.19.45.13.51-.01,1.11.06,1.63.08.45.26.77.34,1.22.01.26-.04.39-.03.72-.05.26.08.45.2.77.14.58.27.96.4,1.41.14.71.17,1.43.43,2.07.07.32-.04.39-.15.53.63-.03.72.68,1.02,1.06.51-.16.98.08,1.32.06.28-.08.39-.28.62-.23.24.31,1.09.01,1.44.19.34-.21.79-.37,1.25-.26.27-.34.97-.25,1.24-.65.1-.33-.08-.58-.04-.91-.02-.46.2-.86.18-1.31-.02-.39-.26-.7-.27-1.1ZM124.54,425.63c-.46.02-1.09-.01-1.6.01-.46.02-.96.31-1.27-.07-.24-.25.04-.59.08-.92.04-.39-.04-1.11.18-1.38.22-.27.41-4.07.45-4.66.03-.65-.11-1.3-.07-1.82.02-.91.23-1.51.66-2.19.1-.46-.03-.65-.05-1.17.11-.07.52.04.51-.16.06,0,.06.06.06.13,0,.06.06.06.12.06.25.58.16,1.17.24,1.82.08.71.45,1.35.26,2.21.12.19.19.38.31.64-.04.53.33,4.03.41,4.68.07.26.08.65.15.97.07.39.25.57.21.84-.04.46-.49.61-.65,1.01Z"/>
      <path d="M165.01,451.91c-.15-.54-.73-.99-.61-1.68-.13-.3-.51-.26-.54-.63-.08-.36.07-.56-.02-.99-.19-.35-.55-.82-.74-1.23-.13-.24-.2-.54-.33-.78-.13-.24-.31-.47-.38-.71-.06-.12-.08-.36-.11-.73-.13-.3-.1-.61-.07-.99-.25-.41-.44-.83-.62-1.06-.24-.35-.31-.53-.5-.89-.19-.42.03-.37-.04-.55-.07-.18-.07-.24-.19-.35-.07-.18-.2-.48-.28-.91-.09-.43-.03-.43-.04-.62-.06-.12-.19-.36-.32-.65-.19-.35-.15-.54-.29-.97-.14-.36-.25-.47-.33-.71-.13-.3-.07-.99-.37-1.33-.29-.28-.21-.6-.21-.6-.12-.11-.13-.3-.2-.48-.5-.82-.89-1.72-1.34-2.67-.28-.04-.3-.35-.42-.52-.18-.17-.41-.34-.43-.64.12-.57.48-.98.84-1.26-.08-.3.06-.63.16-.76.14-.38.23-.58.43-.85-.01-.19-.02-.31-.04-.49,0,0,.3-.4.31-.96.07-.56-.22-.79-.08-1.05.2-.2.36-.28.38-.72.02-.44-.31-.59-.06-.86.2-.33.19-.39.33-.71.09-.32.06-.75.1-.88.09-.19.14-.32.14-.32v-.06c.17-.58.42-1.66.35-1.83-.12-.18.11-.76.21-.89.05-.07-.1-.61-.06-.8,0-.06-.07-.24-.09-.43.05-.13.09-.26.13-.45.25-.27.71-.69.57-1.17,0,0,.05-.07.04-.13.09-.19.07-.5.11-.76.09-.26.24-.45.34-.65.04-.19.02-.5.11-.76.04-.25.18-.51.17-.7.04-.19.02-.5.05-.75.05-.75.25-1.82.2-2.56-.14-.36-.47-.39-.44-.83-.17-.11-.44-.08-.67-.18-.17-.05-.19-.29-.46-.27-.75.19-1.42-.05-2.02,0-.49.05-1.13.23-1.62.28-.07.5-.4.53-.71.81-.2.27.14.48-.05.75-.27.03-.13.45-.17.64-.05.07-.17-.05-.16.08-.05.13.02.25.02.31-.05.07-.16.08-.16.08-.04.25.03.43.04.62-.09.26-.42.23-.39.6.07.24.15.61.12.98-.14.26-.17.64-.43.79.15.54-.15.95-.24,1.2-.05.13-.03.31-.08.44-.12.57-.42,1.03-.37,1.71-.06,0-.05.07-.1.13-.05.07-.29,1.21-.36,1.77-.01.56-.14,1.07-.13,1.19.01.18-.14.32-.16.76-.02.5.09.49-.03,1.06-.12.63-.55,1.48-.55,1.48.04.49.01.93.02,1.05-.31.22-.45.6-.7.94.02.31-.13.45-.05.87-.27.09-.35.4-.62.49.04.62-.38.84-.62,1.24-.43.1-.93.71-1.48.63-.22-.04-.4-.27-.58-.44.15-.26-.09-.55-.06-.86-.02-.31.11-.76.1-.94-.01-.18-.12-.17-.14-.42.04-.19.14-.32.13-.45.04-.25.08-.44.06-.69-.08-.43-.59-3.61-.62-3.98-.09-.55.2-1.01.05-1.56.13-.39.33-.78.29-1.21.06-.63-.27-1.4-.38-2.2-.09-.49-.13-1.1-.12-1.6.03-.37.17-.7.14-1.07.03-.31-.17-.79-.26-1.34-.04-.49-.08-1.11-.16-1.41,0-.06-.18-.23-.18-.29-.07-.18-.08-.36-.14-.48l-.17-.05c-.06-.12-.02-.25-.13-.3-.12-.12-.29-.16-.35-.34-.43.16-.56-.19-.84-.23-.15.2-.37.22-.58.24-.51-.2-1.47.08-2.03-.06-.32.03-.3.4-.69.31-.17-.04-.39-.09-.51-.2-.04.25-.24.39-.4.53-.47.23-.9-.35-1.03.1.38-.1.07.24.03.37-.27-.04-.08.38-.3.4.04.55.08,1.11.12,1.6.61.81.27,2.15.26,3.57.04.55.03,1.18.07,1.73,0,.12.08.3.09.49.04.49-.1.94.05,1.42-.09.32.33.09.25.47.13.3-.2.21-.19.39.2.54.03,1.18.13,1.73.01.19.13.3.2.48.07.18.29,3.26.3,3.39.18.91.26,2.09.34,3.2.03.37.17.79.13,1.1.02.31-.06.63-.09,1,.03.43.12.98.1,1.42.03.37-.11.76-.08,1.19.08.3.26.59.34.9.17.85.19,1.91.2,2.71-.04,1-.35,1.96-.11,2.99.13.3.19-.39.38-.04-.03.37-.17.64-.26.95.1.55.3,1.09.39,1.64.06.8.05,4.47.11,5.33.07.92.4,1.76.52,2.68.19,1.1-.01,2.05.05,2.85.1.68.31,1.21.51,1.81.32-.03.47.45.81.61.34.16.71.06,1.26.07.32-.09.4-.47.79-.45.32-.03.2.48.46.39.58-.3,1.56-.33,2.27-.28.36-.28.5-.67.7-.93.1-.13.26-.15.3-.34.05-.81.26-1.7-.07-2.41.15-.14.07-.51.17-.64-.08-.37-.37-.52-.4-.96.27-.77.17-1.44,0-2.3-.03-.43-.07-.92-.14-1.23-.08-.37-.27-.72-.35-1.08-.1-.55-.17-3.83-.19-4.08-.09-.49-.24-.97-.27-1.4-.1-.68-.05-1.42-.1-2.1-.04-.49-.24-1.03-.17-1.54.42-.29,1-.47,1.55-.52.27-.03.71-.07.93-.02.22.04.35.28.46.33.17.11.45.15.62.25.11.05.18.29.24.35.11.05.22.04.28.1.17.11.15.54.32.65.08.3-.14.38-.06.69.06,0,.06.06.11.05,0,0,.36.4.5.82.09.49-.09.32.22.79.36.46.38.77.38.77,0,0-.36.28.06.86.36.46.26.59.51,1.01.18.92.35,1.83.48,2.07.2.48.29.97.59,1.31.04.61.28.9.42,1.32,0,1.43,1.08,1.33.97,2.77.36.4.51,1.01.56,1.69.18.23.51.26.54.63.19.29.22.73.35,1.02.3.35.69.56.99.9.71,0,1.51-.27,2.38-.35.32-.03.66.06.93.04.11-.01.31-.21.47-.23.26-.09.54-.11.7-.19.15-.14.86-.95.9-1.14.09-.26-.04-.62.22-.77-.08-.36-.26-.59-.33-.84-.02-.25.02-.5-.05-.68Z"/>
      <path d="M200.88,448.54c-.08-.36.01-.56.1-.88-.3-.34-.44-.77-.63-1.18-.07-.24-.13-.3-.2-.48-.03-.43.05-.87.02-1.25-.1-.61-.41-1.14-.28-1.65-.13-.24-.25-.41-.32-.65-.16-.61-.23-2.4-.33-3.82-.03-.43-.54-1.38-.54-1.38,0,0-.19-1.1-.38-1.45-.19-.29,0-.81-.08-1.11-.08-.37-.34-.96-.37-1.33-.03-.37,0-.75.03-1.06-.02-.31.18-.58.1-.88-.08-.3-.14-.42-.49-.76-.35-.34-.3-.34-.37-.58-.08-.3-.22-.73-.41-1.08-.19-.42-.13-1.79-.13-1.79-.06-.06-.12-.17-.13-.3-.06-.06-.06-.12-.07-.18-.07-.18-.13-.3-.14-.42-.02-.31.13-.45.05-.75-.04-.55-.2-.48-.33-.84-.14-.36-.14-1.16-.29-1.71-.21-.6-.26-.6-.41-1.08-.08-.3-.1-.61-.11-.8.05-.07.05-.13.04-.25.01-.56-.3-1.09-.39-1.58,0-.12.08-.38.07-.5-.08-.37-.27-.72-.36-1.15-.08-.43-.07-.92-.21-1.35-.08-.3-.26-.53-.27-.78-.08-.36-.05-.74-.08-1.11-.16-.73-.54-1.44-.49-2.25-.18-.23-.31-.53-.44-.83-.08-.3.08-.38.07-.5,0,0-.11-.05-.12-.18-.02-.25-.2-.54-.05-.74-.12-.11-.19-.29-.25-.47-.12-.18-.14-.48-.21-.66-.06,0-.17-.05-.22-.04-.12-.17-.24-.35-.26-.59-.89-.16-1.13-1.32-1.92-1.62-.23-.1-.49-.01-.77-.11-.68.44-1.39.38-2.27.27-.22.02-.43.04-.66,0-.22-.04-.39-.15-.61-.13-.71,0-1,.47-1.49.57-.26.09-.39-.15-.61-.19.02.25-.08.38-.3.4.02.31.04.55.06.86-.15.2-.13.45-.28.59.19.42-.12.63-.2,1.01-.07.5.02,1.05-.05,1.56-.04.19-.19.39-.23.58-.04.25-.02.5-.11.76-.07.5-.26.95-.33,1.4-.11.76-.16,1.57-.33,2.27-.04.25-.13.45-.22.7,0,0,0,.06,0,.12-.04.19-.08.38-.12.57v.06c-.11.7.07.86-.07,1.93-.14,1.13-.25,1.08-.22,1.45-.03.37-.07,1.31-.35,1.9-.14.32-.16.76-.13,1.19.08,1.05.11,2.23.06,2.42-.03.38-.34.59-.43.91-.04.19-.02.5,0,.68-.04.25-.13.51-.17.7-.02.44.02.99-.06,1.43,0,.06-.09.26-.14.32-.17.7-.27,1.52-.34,2.08-.19,1.14-.26,2.45-.4,3.51-.09.26-.18.51-.22.77-.03.38.06.8-.02,1.18-.03.31-.22.77-.26.95-.09.32-.13.51-.22.7-.08.44.2,3.52.07,3.91.22-.02.43-.04.46.27-.16.08-.2.27-.24.39-.16.08-.44.04-.41.35.08.36-.22.7-.24,1.14-.04.25.08.43.05.68-.04.25-.19.39-.23.58.02.25.09.55.06.8.02.25-.08.44-.11.69,0,.87.04,1.24-.37,1.65.1.55-.2,1.01-.22,1.45-.04.25.09.55.11.8,0,.12-.09.32.04.49-.04.19-.25.27-.29.46.59-.12.85.42,1.24.57.45.21.83.11,1.42,0,.32-.09.7-.19,1.02-.22.33.03.56.2.84.23.44.02.76-.13,1.09-.04.14-.39.52-.42.83-.64.32-.16.63-.37.89-.58-.1-.61-.34-1.64-.17-2.28.05-.13.13-.51.29-.52-.12-.98.45-1.35.57-1.98.06-.63-.09-1.29-.09-1.92.05-.13.14-.32.13-.51.09-.26,0-.68.09-1.06.09-.2.2-.27.24-.46.04-.25-.04-.49-.05-.68.04-.19.14-.39.12-.63.02-.44-.16-3.71-.19-4.14.44-.66.59-1.61,1.22-2.04.49-.05,1.07-.35,1.39-.44.38-.1.86-.14,1.24-.18.81-.14,1.62-.28,2.24.04.35,1.02.76,5.21,1.05,6.23.15.54.17.85.3,1.15.06.12.18.23.19.42.14.48.02,1.05.11,1.54.09.43.27.72.36,1.15.02.25-.03.37,0,.68-.04.25.09.43.22.73.15.54.28.9.42,1.33.16.67.21,1.35.47,1.94.08.3-.03.37-.13.51.6-.06.7.62,1,.96.48-.17.93.04,1.26,0,.27-.09.36-.28.58-.24.24.29,1.03-.03,1.37.12.31-.22.74-.38,1.18-.3.25-.33.91-.27,1.15-.67.09-.32-.09-.55-.06-.86-.03-.43.16-.82.13-1.25-.03-.37-.27-.66-.29-1.03ZM189.33,428.7c-.43.04-1.03.03-1.52.08-.44.04-.91.33-1.2-.01-.23-.23.01-.56.05-.87.03-.37-.08-1.05.12-1.32.2-.27.26-3.87.28-4.43,0-.62-.14-1.23-.13-1.72,0-.87.17-1.44.56-2.1.08-.44-.04-.62-.08-1.11.1-.07.49.01.48-.17.06,0,.06.06.06.12,0,.06.06.06.11.05.26.54.19,1.1.29,1.71.1.67.47,1.26.31,2.08.12.18.19.36.32.59-.02.5.44,3.81.54,4.42.07.24.1.61.18.91.08.36.26.53.22.79-.02.44-.45.6-.58.99Z"/>
      <path d="M229.52,412.8c-.06-.12-.22-.11-.28-.22-.11-.11-.07-.3-.18-.35-.43-.09-.85,0-1.22-.11-.21-.05-.33-.22-.54-.27-.11,0-.21.13-.36.14-.05,0-.11-.17-.11-.17-.11-.05-.21.13-.26.07-.37.02-.74-.07-1.06,0-.47.09-.78.35-1.03.6,0,0-.55,1.78-.53,2.14.02.42.03.54-.16,1.15s-.32,1.16-.32,1.16c0,0,.16,1.19.07,1.5-.09.31-.08.6-.38.92-.1.19-.2.25-.3.32.01.24.02.36-.03.42.08.54-.14,2.54-.34,2.97-.24.44-.26,1.22-.35,1.53-.09.37-.1.13-.17.85-.07.73.16,1.08.07,1.44-.14.43-.53,1.11-.58,1.24.03.72,0,1.26.01,1.38-.21.13-.07.67-.39.69.22.11.14.71-.01.78-.15.13-.53.09-.74.1-.17-.23-.3-.76-.16-1.07-.12-.17-.24-.53-.37-1-.22-.28-.24-.59-.36-.94-.07-.42-.08-.54-.15-1.01-.13-.47-.25-.77-.32-1.18q-.07-.36-.31-.94c-.24-.59-.18-.41-.3-.77-.13-.41-.08-.54-.26-1.12-.19-.59-.13-.53-.2-.95-.07-.36.03-.48-.03-.66-.06-.18-.63-1.04-.64-1.22-.01-.24-.02-.42-.05-.96-.02-.48-.13-.53-.31-1-.18-.41-.19-.65-.26-1.07-.07-.48-.13-.53-.31-.88-.17-.35-.12-.35-.36-.88-.18-.53.08-.55-.04-.84-.07-.24-.52-.93-.59-1.29-.12-.35-.51-.81-.51-.81-.21.07-.41.21-.62.28-1.23-.23-3.02-.12-4.17.26,0,.18-.15.19-.2.25-.05.12.01.24-.04.36-.18.61-.22.98-.08,1.63.14.71.55,1.53.74,2.24.06.18.51,1.89.52,2.07.06.12.17.17.23.35.25.83.51,1.77.76,2.54.06.24.18.35.34.52,0,.06.2.89.27,1.25.13.41-.03.48.05,1.02.13.47.19.59.38,1.24.14.65.09.84.27,1.19,0,.12.12.35.29.58.02.48.04.84.04.9,0,.18.13.41.19.65.06.12.11.17.17.29.06.12-.04.3.02.48.06.12.22.23.28.34.41.88.37,2.14.92,2.65.07.3-.2.19-.13.49.38.28.56.75.55,1.53.22.28.5.57.41.94.11.11.32.1.38.22.01,1.44,1.18,1.49,1.04,3.06.32.1.13.47.25.71.07.3.23.47.25.77-.28.74-.15,1.33-.06,2.11.07.42.04.78.05,1.14.07.3.22,1.37.24,1.73.02.36-.02.78,0,1.14.03.6.16,1.19.14,1.85.01.24-.08.55-.12.85-.04,1.44.14,3,.16,4.44,0,1.2-.15,2.48.53,3.28.37.1.52-.09.84,0,.16.05.38.22.65.26.74.07,2.64-.16,3.26-.32.21-.01.53-.09.58-.1.05-.06.04-.3.09-.31.05-.06.22.05.32-.02.02-.6-.11-1.13-.08-1.68.04-.24.13-.49.12-.73.05-1.15-.31-2.03-.3-2.99.03-.42.22-.86.26-1.22.24-1.58-.19-2.88-.21-4.38-.07-.3-.24-.59-.26-.95-.08-.54.22-2,.24-2.66.07-.85-.29-1.73-.28-2.45.04-.24.18-.55.22-.85.09-.43.01-.9.11-1.09.05-.12.04-.18.09-.3.13-.55.48-1.05.67-1.42-.17-1.25.61-1.54.39-2.85.29-.56.58-1.12.82-1.73-.07-.24-.18-.47-.14-.71.08-.61.22-.86.21-1.21-.02-.42.38-1.95.44-3.04.11-1.03.13-.61.37-1.1.02-.78-.01-1.44.03-1.51-.01-.24.03-.42.08-.55,0,0,0-.06-.06-.06h.05c.09-.43.29-.62.33-.81,0,0,.05-.12.1-.25-.06-.06-.06-.12-.01-.24.05,0,.11,0,.11,0,.1-.19.14-.43.23-.62q0-.06.05-.06c.14-.49.27-.92.21-1.16-.03-.6.45-.57.26-1.22-.14-.71.2-1.34.2-1.34.02-.72-.02-1.5.03-1.68.13-.55.59-.94.68-1.37.05-.18-.26.14-.22-.17.03-.42.28-.8.37-1.1,0-.12.05-.12.04-.36-.01-.3-.23-.35-.23-.47-.06-.06,0-.18-.01-.24Z"/>
      <path d="M263.94,452.07c-.07-.36.03-.54.12-.85-.28-.34-.41-.76-.58-1.17-.07-.24-.12-.29-.18-.47-.02-.42.07-.85.05-1.21-.08-.59-.37-1.12-.24-1.61-.12-.23-.23-.41-.29-.64-.14-.59-.16-2.34-.23-3.71-.02-.42-.49-1.35-.49-1.35,0,0-.16-1.07-.33-1.42-.17-.29.01-.78-.05-1.08-.07-.36-.31-.94-.33-1.3-.02-.36.02-.72.06-1.02-.01-.3.18-.55.12-.85-.07-.3-.13-.41-.46-.76-.33-.34-.28-.34-.34-.58-.07-.3-.19-.71-.37-1.06-.18-.41-.08-1.74-.08-1.74-.05-.06-.11-.17-.12-.29-.05-.06-.06-.12-.06-.18-.06-.18-.12-.29-.13-.41-.01-.3.14-.43.07-.73-.03-.54-.18-.47-.3-.82-.12-.35-.11-1.13-.24-1.67-.19-.59-.24-.59-.37-1.06-.07-.29-.08-.59-.09-.78.05-.06.05-.12.04-.24.03-.54-.26-1.07-.34-1.54,0-.12.09-.37.08-.48-.07-.36-.24-.71-.32-1.12-.07-.42-.04-.9-.17-1.31-.07-.3-.24-.53-.25-.77-.07-.36-.03-.72-.05-1.08-.14-.71-.49-1.41-.42-2.2-.17-.23-.29-.52-.41-.81-.07-.3.09-.37.08-.49,0,0-.11-.05-.11-.17-.01-.24-.18-.53-.03-.72-.11-.11-.17-.29-.24-.47-.11-.17-.13-.47-.19-.65-.05,0-.16-.05-.22-.05-.11-.17-.23-.35-.24-.59-.86-.19-1.07-1.32-1.82-1.63-.22-.11-.48-.03-.75-.13-.67.4-1.36.32-2.21.19-.21.01-.42.03-.64-.02-.21-.05-.38-.16-.59-.15-.69-.02-.98.42-1.46.51-.26.08-.38-.16-.59-.2.01.24-.09.37-.3.38.01.3.03.54.04.84-.15.19-.14.43-.29.56.18.41-.13.61-.22.98-.08.49,0,1.02-.09,1.51-.05.18-.19.37-.24.56-.04.24-.03.48-.12.73-.08.48-.27.92-.36,1.34-.12.73-.19,1.52-.37,2.19-.04.24-.14.43-.23.68,0,0,0,.06,0,.12-.04.18-.09.37-.13.55v.06c-.12.67.04.84-.12,1.87-.16,1.09-.27,1.04-.25,1.4-.04.36-.1,1.27-.39,1.83-.14.31-.18.73-.16,1.15.05,1.02.05,2.16,0,2.35-.03.36-.34.56-.43.87-.04.18-.03.48-.02.66-.04.24-.14.49-.18.67-.03.42,0,.96-.09,1.39,0,.06-.09.25-.14.31-.18.67-.3,1.46-.38,2.01-.21,1.1-.31,2.36-.47,3.4-.09.25-.19.49-.23.74-.03.36.04.78-.05,1.15-.04.3-.23.74-.27.92-.09.31-.14.49-.23.68-.09.43.11,3.42-.03,3.79.21-.01.42-.03.44.27-.15.07-.2.25-.24.37-.16.07-.42.03-.41.33.07.36-.23.68-.26,1.1-.04.24.07.42.03.66-.04.25-.2.37-.24.56.01.24.08.54.04.78.01.24-.09.43-.13.67-.01.84,0,1.2-.4,1.59.08.54-.22.98-.25,1.4-.04.25.08.54.09.78,0,.12-.09.31.02.48-.04.18-.25.26-.3.44.58-.09.81.43,1.19.59.43.22.8.13,1.38.04.31-.08.68-.16,1-.18.32.04.54.21.8.25.43.04.74-.1,1.06,0,.14-.37.51-.39.82-.59.31-.14.62-.34.87-.54-.08-.59-.29-1.61-.11-2.22.05-.12.14-.49.29-.5-.1-.96.47-1.29.6-1.9.08-.6-.06-1.26-.04-1.86.05-.12.14-.31.14-.49.09-.25.02-.66.11-1.03.1-.19.2-.25.24-.44.04-.24-.02-.48-.03-.66.05-.18.14-.37.13-.61.03-.42-.07-3.6-.09-4.02.45-.63.61-1.54,1.23-1.94.47-.03,1.04-.3,1.36-.38.37-.08.84-.11,1.21-.13.79-.11,1.58-.22,2.17.11.31,1,.61,5.07.87,6.08.13.53.15.83.26,1.13.06.12.17.23.18.41.13.47,0,1.02.07,1.5.07.42.24.71.32,1.12.01.24-.04.36-.02.66-.04.24.07.42.19.71.13.53.25.89.38,1.3.14.65.17,1.31.41,1.9.07.3-.04.36-.14.49.58-.04.66.62.95.97.47-.15.9.06,1.22.05.26-.07.36-.26.57-.22.22.29,1,0,1.33.16.31-.2.72-.35,1.15-.25.25-.32.89-.24,1.13-.61.09-.31-.08-.54-.04-.84-.02-.42.18-.79.16-1.21-.02-.36-.24-.65-.26-1.01ZM253.22,432.46c-.42.03-1,0-1.48.03-.42.03-.89.29-1.17-.05-.22-.23.03-.54.07-.85.04-.36-.05-1.02.15-1.27.2-.25.35-3.75.38-4.29.02-.6-.11-1.2-.08-1.68.01-.84.2-1.4.59-2.02.09-.43-.03-.6-.05-1.08.1-.07.48.03.47-.15.05,0,.06.06.06.12,0,.06.05.06.11.05.24.53.16,1.08.24,1.67.08.66.43,1.24.25,2.03.11.17.18.35.29.58-.03.48.34,3.71.42,4.31.07.24.08.59.15.89.07.36.24.53.19.77-.03.42-.45.57-.59.94Z"/>
      <path d="M154.65,273.07c3.05-21.84,6.68-43.58,9.83-65.4.54-3.74.69-8.01-.34-11.52-3.43-11.67-7.26-23.22-12.77-33.92-1.23-2.39-2.31-4.87-3.52-7.43.18-.52.42-1.23.48-1.42-3.34-7.51-6.42-14.61-9.64-21.63-4.25-9.26-8.01-18.91-13.09-27.56-5.93-10.1-13.05-19.31-19.67-28.88-1.61-2.33-7.31-17.99-8.55-20.13,10.68-2.25,20.18-6.21,29.97-10.52-2.13-4.78-4.07-9.15-6.26-14.08.29,2.27.48,3.84.68,5.41-.35.11-.71.23-1.06.34-2.11-4.96-4.22-9.92-6.25-14.69-24.59,6.43-47.03,18.49-70.07,28.53-1.55,2.83-3.07,5.6-4.92,8.96,1.14,3.45,2.36,7.15,3.72,11.27,8.44-2.15,16.27-4.14,23.59-6,2.45,3.02,4.57,5.27,6.31,7.86,9.84,14.64,20.23,28.85,28.48,44.77,5.13,9.89,10.6,19.48,13.52,30.82,4.75,18.44,9.02,36.97,12.05,55.88.34,2.13.6,4.4.31,6.5-1.42,10.13-2.93,20.24-4.63,30.31-.8,4.77-2.04,9.45-3.17,14.14-.72,2.98-1.77,5.86-2.37,8.87-1.01,5.06-2.47,9.77-5.05,14.18-4.12,7.02-7.95,14.29-11.57,21.66-1.61,3.27-3.75,5.26-6.76,6.29-6.4,2.2-12.74,4.72-19.25,6.43-4.28,1.13-8.86,2.51-12.92-1.58-5.66-5.69-11.53-11.1-17.28-16.68-5.42-5.26-10.8-10.59-16.34-16.03-1.43-10.26-2.86-20.41-4.22-30.19,1.35-1.46,2.1-2.37,2.93-3.17,7.8-7.45,15.65-14.84,23.41-22.34,2.46-2.38,4.69-5.07,7.39-8.01,5.58,3.93,11.61,8.19,18.02,12.7-.04,6.73-.34,13.28-.05,19.8.24,5.24-1.58,9.19-4.13,13.28-4.32,6.93-8.17,14.25-12.2,21.37,3.97,2.39,8.08,4.87,12.7,7.66,1.29-1.59,2.67-3.47,4.23-5.15,1.77-1.91,3.68-3.65,5.55-5.44,1.75-1.68,3.89-3.02,5.23-5.05,4.27-6.47,8.25-13.2,12.39-19.92-.72-8.9-1.38-17.8-2.24-26.66-.15-1.59-.92-3.28-1.81-4.56-7.42-10.66-14.94-21.23-22.34-31.71-1.69-.36-3.01-.78-4.36-.91-3.95-.39-8.17.21-11.79-1.2-5.27-2.05-10.25-1.38-15.36-.3-1.81.38-3.76.95-5.24,2.11-8.13,6.39-16.13,12.98-25.35,20.46-3.11,8.65-6.97,18.65-10.22,28.9-1.01,3.17-.64,7.04-.4,10.55.33,4.82,1.07,9.62,1.76,14.4.98,6.77,1.96,13.55,3.22,20.26.38,2,1.41,4.08,2.64,5.6,4.37,5.41,8.99,10.56,13.44,15.89,5.2,6.22,10.19,12.68,15.53,18.74,6.7,7.59,13.67,14.87,20.6,22.37,23.45-6.88,46.41-13.61,69.8-20.47,3.68-6.11,7.55-12.35,11.25-18.73,2.49-4.3,4.79-8.74,7.07-13.19,3.57-6.97,7.89-13.38,9.07-21.84ZM64.96,216.29c.01.14.03.28.04.42-.39.13-.78.26-1.17.39-.03-.31-.06-.61-.09-.91.41.04.81.07,1.22.11Z"/>
      <path d="M195.16,149.06c-2.8,4-6.24,7.43-9.37,11.14-.81.96-1.53,2.01-2.31,3.04,2.96,4.01,5.64,7.63,8.41,11.37,3.1-1.66,6.41-3.53,9.8-5.21,10.75-5.31,21.57-10.46,32.29-15.85,4.44-2.23,8.65-5.05,13.06-7.35,5.88-3.07,12.11-5.33,17.29-9.99.7-.63,1.77-.74,2.66-1.13,1.75-.77,3.59-1.39,5.22-2.42,1.9-1.21,3.68-1.98,5.99-.56.45,3.61.94,7.3,1.38,10.99.75,6.42,1.79,12.82,2.12,19.26.39,7.76.31,15.57.14,23.36-.05,2.37-.62,5-1.68,7-3.54,6.68-7.4,13.13-11.17,19.65-.6,1.04-1.15,2.29-2.01,2.94-5.93,4.46-11.94,8.79-18.28,13.43-.57-2.92-1.41-5.86-1.67-8.86-.81-9.5-1.52-19.01-2.04-28.54-.56-10.28-.82-20.57-1.31-30.85-.07-1.47-.69-2.91-1.21-4.97-3.16,2.04-6.47,3.17-8.43,5.67-3.98,5.1-7.23,10.94-10.71,16.36,1.41,13.95,2.79,27.69,4.25,42.08-1.8-.71-3.06-1.22-4.32-1.71-5.81-2.29-10.63-6.72-16.14-9.65-3.67-1.95-7.32-3.96-11.17-6.05-.5,1.51-1.02,2.48-1.15,3.51-1.24,10.32-2.08,12.84,6.02,18.61,1.62,1.15,3.06,2.62,4.55,3.98,8.79,8.02,17.58,16.04,26.36,24.08,1.82,1.67,3.78,2.34,6.13,1.8,9.01-2.06,18.03-4.07,27.05-6.04,3.48-.76,6.64-1.94,8.28-5.99.18-.44.94-.59,1.43-.87-.02.03-.03.06-.05.09.83-.81,1.79-1.5,2.46-2.46,6.2-8.77,12.43-17.52,18.47-26.44,1.95-2.89,3.35-6.27,5.38-10.16.56-.82,1.71-2.31,2.63-3.96.92-1.64,1.61-3.45,2.43-5.26.37-9.94.74-20,1.12-30.15,1.17-9.84.08-19.43-2.74-29.78,1.21-4.08-2.31-7.37-3.67-11.6-1.31-.02-2.46-.04-3.54-.06-1.69-2.65-2.74-6.04-6.35-5.61-2.41-4.42-7.45-4.43-10.25-8.21-1.85.75-3.52,1.42-5.18,2.11-20.6,8.59-41.2,17.17-61.79,25.78-7,2.93-13.54,6.56-18.38,13.47ZM290.96,116l-.16-.05s0,0,0-.01l.17.06Z"/>
      <path d="M268.68,323.72c-3.33-2.82-6.14-6.42-9.22-9.62-1.25-1.3-2.64-2.43-3.8-3.48-5.34,4.99-9.36,10.02-5.85,17.37,1.61,1.93,2.88,3.45,4.3,5.15-1.26,5.58-2.51,10.85-3.62,16.15-.57,2.71-1.97,4.2-4.3,4.83-4.06,1.11-8.05,2.62-12.15,3.44-8.31,1.66-16.67,2.98-25.02,4.43-.24.04-.5-.03-1.45-.1-10.43-7.79-19.07-18.16-24.55-31.95.31-.36.6-.96,1.02-1.11,7.38-2.75,14.97-4.01,22.71-4.23,4.28-.12,8.56-.22,12.7-.33,1.31-2.64,2.39-4.83,3.43-6.92-1.75-3.34-3.29-6.28-4.93-9.4-12.56-.34-24.94-.46-37.27,2.29.01-3.15-.21-5.6.09-7.96.46-3.65,1.05-7.33,2.08-10.8.38-1.27,2.09-2.34,3.39-2.86,1.24-.5,2.75-.3,4.13-.18,10.58.91,21.21,1.45,31.72,2.96,7.13,1.02,14.07,1.15,21.13-.19,9.09-1.72,18.23-3.08,27.25-4.58,1.34-3.52,2.53-6.64,3.62-9.52-1.72-2.63-3.22-4.91-4.76-7.26-2.51-.51-4.99-1.22-7.49-1.48-5.66-.58-11.33-1-17-1.35-2.98-.18-5.98-.01-8.96-.15-1.85-.09-3.69-.59-5.54-.7-3.39-.21-6.86.19-10.17-.48-9.26-1.89-18.57-2.34-27.94-2.12-1.37.03-2.75-.3-4.13-.43-.37-.04-6.91,2.93-8.47,4.52-5.54,5.66-11.02,11.38-16.35,16.9-1.02,4.09-1.95,7.78-2.81,11.24,1.01,1.11.42,3.79-.36,4.12-.44,2.3-.96,4.37-1.21,6.48-.18,1.53-.31,3.23.1,4.64.98,3.4,2.06,6.82,3.5,9.99,3.01,6.64,6.13,13.22,9.48,19.65,5.02,9.64,10.25,19.14,15.46,28.65.55,1.01,1.51,1.94,2.46,2.41,4.83,2.34,9.69,4.61,14.6,6.71,3.99,1.7,8.07,3.13,13.07,5.05,13.97-4.34,28.83-8.95,43.65-13.55.39-1.16,2.74-2.98,2.82-2.99,1.92-2.49,3.39-4.38,5.16-6.67.94-8.63,1.88-17.75,2.94-26.86.47-4.07-.41-7.09-3.49-9.69Z"/>
      <path d="M165.59,103.8c.76.53,1.21,1.66,1.41,1.95.47,5.74.88,10.79,1.31,16.05,1.71.15,3.17.27,4.58.39.42-.87.81-1.37.93-1.95,3.86-17.22,8.19-34.33,11.32-51.72,1.77-9.82,4.59-19.72,3.16-30.08-.27-1.94.48-3.33,2.68-3.89,7.57,5.51,15.36,11.17,23.49,17.09-6.09,5.23-13.67,7.92-14.98,17.18,2.14,1.7,4,3.19,5.99,4.77,1.86-1.11,3.75-2.4,5.77-3.37.85-.41,1.96-.12,2.95-.15,0,0-.01.01-.01.01,0,.12,0,.23,0,.35.1-.14.21-.28.31-.42-.1.02-.2.04-.3.05.47-.43.95-1.22,1.4-1.2,8.24.39,16.42,1.47,24.3,4.25,8.07,2.84,15.98,6.24,24.1,9.44,1.32-1.63,2.58-3.2,3.8-4.71-1.24-2.83-2.19-5.43-3.49-7.8-1.14-2.08-2.38-4.36-4.08-5.74-5.83-4.69-11.94-8.94-17.85-13.51-8.42-6.51-16.69-13.26-25.15-19.7-6.93-5.27-12.69-12.57-20.89-15.65-.89-.33-1.61-1.19-2.44-1.73-7.01-4.58-14.02-9.15-21.04-13.72-2.08,1.38-3.92,2.61-5.42,3.61-.64,5.58-1.28,10.49-1.76,15.43-.96,9.76-2.06,19.51-2.71,29.3-.9,13.53-1.42,27.09-2.15,40.63-.31,5.76-.33,11.3,4.77,14.83Z"/>
      <path d="M205.02,174.05c-7.81,4.22-15.62,8.44-23.42,12.69-.48.26-1.01.68-1.24,1.19-.43.97-.67,2.06-1.21,3.86,3.7-1.63,6.41-3.04,9.23-4.02,6.96-2.42,12.26-7.34,16.64-13.73Z"/>
      <path d="M169.33,216.94c-1.22,10.18-2.43,20.36-3.65,30.55.23.09.46.18.7.27,2.45-5.84,4.9-11.68,7.38-17.6-1.2-4.46-2.42-8.97-3.64-13.47l-.79.26Z"/>
      <path d="M281.98,297.36c.02.27.03.55.05.82,7.87.74,15.74,1.48,23.53,2.21,1.32-2.36,2.46-4.39,3.59-6.41-.13-.33-.26-.67-.4-1-8.92,1.46-17.85,2.92-26.78,4.38Z"/>
      <path d="M116.91,202.73c-.51-6.45-1.63-12.84-2.48-19.26-.24,0-.48.01-.73.02-1.08,7.75-2.16,15.5-3.35,24.08.27.37,1.02,1.4,1.65,2.26,4-.69,5.3-2.18,4.91-7.09Z"/>
      <path d="M289.04,262.46c9.74,2.16,19.42,2.76,22.77.85-6.83-2.15-12.89-4.06-20.08-6.33,2.17,4.74-1.91,3.08-2.69,5.48Z"/>
      <path d="M74.22,91.33c5.55,8.07,10.69,15.55,15.83,23.03-3.25-12.92-9.81-22.61-15.83-23.03Z"/>
      <path d="M90.37,346.24c-7.38-.29-14.54,1.27-21.53,4.23,7.51,1.8,14.53-1.1,21.72-2.27-.06-.65-.13-1.3-.19-1.96Z"/>
      <path d="M239.96,86.77c-6.68-4.18-12.52-7.83-18.35-11.47,3.76,4.08,7.52,8.16,11.25,12.22,2.21-.23,4.13-.43,7.09-.75Z"/>
      <path d="M221.62,75.3c-.08-.09-.17-.18-.25-.27-.34-.29-.67-.57-1.01-.86.32.31.63.63.95.94.1.06.21.13.31.19Z"/>
      <path d="M199.49,7.35s-.04-.1-.07-.15l-.09.04-.19.12.2-.11.15.11Z"/>
      <path d="M209.88,17.36c1.81,1.17,3.87,1.84,5.81,2.73.15-.39.3-.78.46-1.17-5.55-3.86-11.1-7.72-16.65-11.58.66,1.34,1.11,3.01,2.1,3.87,2.61,2.27,5.42,4.3,8.29,6.15Z"/>
      <path d="M211.79,74.98c3.13,4.87,5.23,11.07,12.07,11.13-3.8-3.98-7.61-7.96-11.41-11.93l-.66.8Z"/>
      <path d="M237.45,78.96c-.59-.22-1.17-.44-1.76-.66l-.08.1c.59.22,1.17.45,1.76.67.2.08.4.17.6.25-.17-.12-.35-.24-.52-.37Z"/>
      <path d="M252.89,86.31c.02-.21.03-.42.05-.62-4.99-2.12-9.98-4.24-14.97-6.36,3.61,2.54,7.21,5.08,10.55,7.44,1.68-.18,3.02-.32,4.37-.46Z"/>
      <path d="M176.37,215.27c-.23.16-.46.32-.69.49,1.35,4.78,2.7,9.57,4.05,14.35,2.07-6.11-.5-10.53-3.37-14.84Z"/>
      <path d="M70.25,32.43c-5.46,1.78-11.41,2.2-15.96,6.47.12.34.24.67.37,1.01,5.2-2.49,10.4-4.98,15.6-7.48Z"/>
      <path d="M14.24,305.36c3.91,9.6,10.39,16.34,17.43,22.44-5.79-7.47-11.59-14.94-17.38-22.41l-.04-.04Z"/>
      <path d="M32.23,328.52l.1-.14c-.22-.19-.44-.39-.66-.58.19.24.37.48.56.72Z"/>
      <path d="M176.09,152.42c-3.42,3.57-3.5,5.87-1,11.59.31-3.63.62-7.14,1-11.59Z"/>
      <path d="M171.36,249.8l-.02.09.08.21-.05-.28s0-.02.01-.04c0,0-.01.01-.02.01Z"/>
      <path d="M175.77,238.25c-1.57,4.13-2.98,7.83-4.39,11.53,3.48-2.42,5.8-7.85,4.39-11.53Z"/>
      <path d="M202.41,2.24s0,0,0-.01c-.12-.04-.25-.07-.37-.11.09.03.19.06.28.09.03,0,.07.02.1.03Z"/>
      <path d="M203.67,3.78c3.78,2.01,7.6,3.93,11.41,5.89-.01.09-.03.17-.04.26.09,0,.17,0,.26,0-.07-.09-.14-.17-.21-.26v-.05c-3.73-3.54-7.92-6.08-12.67-7.36.41.52.75,1.25,1.26,1.53Z"/>
      <path d="M189.93,144.56c-1.88,1.49-5.06,1.08-5.43,6.25,2.47-2.24,4.24-3.85,6.02-5.46-.19-.27-.39-.53-.58-.8Z"/>
      <path d="M130.14,32.72c0,3.14-.01,5.65-.02,8.16.32-.02.64-.03.97-.05,1.43-2.67.86-5.15-.95-8.11Z"/>
      <path d="M108.97,154.11c-.86-2.54-2.24-4.64-4.25-6.22,1.15,2.27,2.31,4.54,3.46,6.8.26-.19.52-.39.78-.58Z"/>
      <path d="M123.51,19.94c-.23-.78-.47-1.57-.7-2.35-.2.06-.4.12-.61.18.1.77.21,1.54.31,2.31.33-.05.66-.1,1-.14Z"/>
      <path d="M106.03,141.23l-1.65-2.43c-.2.18-.4.36-.6.54.53.85,1.06,1.7,1.58,2.55.22-.22.44-.44.67-.65Z"/>
      <polygon points="185.48 311.54 185.82 311.36 185.47 311.2 185.48 311.54"/>
      <path d="M205.21,173.95c.14-.17.28-.34.27-.33,0,0-.16.13-.33.26-.04.06-.08.11-.12.17.06-.03.13-.07.19-.1h0Z"/>
      <polygon points="45.8 183.55 46.03 183.71 46.08 183.46 45.8 183.55"/>
      <path d="M220.05,74.22c.1-.02.2-.04.3-.07,0-.11,0-.23,0-.34-.1.14-.2.27-.3.41Z"/>
      <path d="M220.34,74.16s0,0,.01.01c0,0,0,0-.01-.01,0,0,0,0,0,0,0,0,0,0,0,0h0Z"/>
      <path d="M216.15,247.01c.01.11.02.22.03.33h0s0,0,0,0c0,0,0-.01,0-.02-.01-.1-.02-.21-.04-.31Z"/>
      <path d="M216.43,247.25c-.08.03-.16.06-.25.09,0,.09,0,.18,0,.27.08-.12.17-.24.25-.36Z"/>
      <path d="M104.46,147.66c.09.07.17.16.26.23-.06-.11-.11-.22-.17-.33-.31-.19-.63-.38-.94-.57.28.22.56.45.85.67Z"/>
      <path d="M103.38,146.6c.02.09.04.19.06.28.06.04.12.07.18.11-.06-.05-.12-.09-.17-.14-.02-.08-.04-.17-.06-.25Z"/>
      <path d="M230.31,33.47c0-.11,0-.21,0-.32-.09.13-.18.26-.27.39.09-.02.18-.05.27-.07,0,0,0,0,0,0Z"/>
    </g>
  </g>
</svg>