<?xml version="1.0" encoding="UTF-8"?>
<svg id="Capa_2" data-name="Capa 2" xmlns="http://www.w3.org/2000/svg" viewBox="0 0 9399.21 2120.93">
  <defs>
    <style>
      .cls-1 {
        fill: #13110c;
      }
    </style>
  </defs>
  <g id="Dimensions">
    <g>
      <path class="cls-1" d="M7854.61,553.88h-34.91v43.71h34.91c5.87,0,10.86-2.1,14.96-6.31,4.1-4.2,6.16-9.34,6.16-15.4,0-7.04-1.96-12.46-5.87-16.28-3.91-3.81-9-5.72-15.26-5.72Z"/>
      <path class="cls-1" d="M7406.8,1016.37c-27.52-43.29-72.53-74.84-121.86-88.17-48.88-13.21-94.43-3.75-143.43,2.19-39.04,4.74-75.46,13.82-108.53,36.49-38.23,26.2-65.24,71.23-67.15,117.89-1.77,43.19,17.18,94.43,45.44,126.91,25.25,29.02,62.86,40.37,98.72,50.61,39.96,11.42,82.05,15.29,123.44,11.62,51.37-4.55,110.57-18.1,146.3-57.83,25.37-28.22,53.88-65.04,55.11-104.48.12-3.72.04-7.57-.24-11.54-2.03-29.25-12.08-58.96-27.8-83.69Z"/>
      <path class="cls-1" d="M7902.11,498.98c-17.72-10.48-37.17-15.72-58.34-15.72s-41.27,5.24-58.98,15.72c-17.72,10.48-31.82,24.52-42.29,42.13-10.48,17.61-15.72,37.22-15.72,58.82s5.24,40.62,15.72,58.34c10.47,17.72,24.58,31.87,42.29,42.46,17.71,10.59,37.38,15.88,58.98,15.88s40.62-5.29,58.34-15.88c17.71-10.59,31.86-24.74,42.46-42.46,10.58-17.72,15.88-37.17,15.88-58.34s-5.29-41.21-15.88-58.82c-10.59-17.61-24.75-31.65-42.46-42.13ZM7873.98,668.59l-22.88-47.82h-31.39v47.82h-24.64v-138.18h58.96c13.89,0,25.08,4.25,33.59,12.76,8.51,8.51,12.95,19.41,13.35,32.71,0,8.03-2.11,15.7-6.31,23.03-4.21,7.33-10.32,13.15-18.33,17.45l25.82,52.22h-28.16Z"/>
      <path class="cls-1" d="M0,0v2120.93h9399.21V0H0ZM2620.13,1487.15c-2.12,7.16-9.46,11.47-16.64,13.51-26.11,7.41-56.06-1.24-82.61-1.96-27.7-.75-55.42-1.1-83.12-.28-34.87,1.03-69.68,3.89-104.58,4.07-33.78.17-173.95,5.63-210.69.89-7.58-.98-15.99,1.54-23.06-1.92-12.01-5.88-15.95-22.44-20.81-33.67-40.74-94.03-77.73-211.3-120.26-304.33-5.7-12.47-10.59-25.28-16.21-37.78-11.4-25.35-26.63-48.67-53.71-58.96-13.89-6.94-32.49-5.4-46.32.5-31.94,15.97-26.41,49.95-28.68,79.89-8.26,108.85,4.36,234,2.32,343.01-.12,6.32-5.69,11.03-11.97,10.34-20.62-2.27-61.92-.07-68.58,0-49.46.55-98.63,4.89-148.16,4.83-50.06-.06-100.1-1.42-150.14-2.25-12.85-.21-16.5,3.21-20.08-8.99-9.68-33,.13-160.97-.87-184.52-1.67-39.75-3.32-79.49-4.7-119.25-2.72-78.49-4.42-157.04-3.32-235.57.49-35,2.88-235.35.63-243.66-2.24-8.3,3.95-16.55,12.52-17.35.91-.09,1.63-.15,2.08-.19.38-.04.71-.05,1.1-.06,114.93-1.37,231.39-3.47,346.24.63,24.81.88,49.63-.37,74.44-.77,11.31-.19,22.75.65,34.03.21,7.26-.28,15.8-4.22,22.32.7,2.55,1.93,4.42,4.61,6.19,7.28,17.33,26.14,26.84,55.15,37.91,84.21,11.44,30.02,23.77,80,35.62,109.86,7.8,19.64,15.37,39.37,22.4,59.31,13.52,38.36,29.01,77.26,48.38,112.99,17.19,31.72,28.92,65.99,41.97,99.54,2.89,7.42,5.88,15.02,11.17,20.96,11.2,12.59,34.4,10.47,49.7,10.61,7.77.07,15.79-.71,22.67-4.34,36.33-19.19,31.08-146.6,31.76-176.56.72-32,1.22-63.95.49-95.96-.65-29.04-4.75-160.01-5.36-197.48-.13-7.85.02-15.48.6-23.31.07-.96.17-1.99.78-2.73.6-.73,1.56-1.03,2.46-1.28,27.98-7.99,52.17-1.54,80.12-.89,32.61.76,65.23.88,97.85.36,16.66-.26,33.8.61,50.35-.74,17.35-1.42,34.01-4.2,51.57-3.98,23.14.28,46.26,1.34,69.38,2.14,11.16.39,43.59-4.84,50.47,6.28,2.01,3.25,2.41,7.21,2.69,11.02,2.63,36.25-7.12,83.73-5.17,119.69,0,61.88,6.21,124.2,7.4,186.16.07,3.63.16,7.25.27,10.88,1.46,49.89,6.08,99.9,5.86,149.71-.17,37.29-2.58,75.23-2.73,112.91-.12,30.01-.24,81.42-.36,111.42-.11,24.1.49,48.09,4.22,71.94.67,4.29,1.41,8.75.18,12.92ZM3389.28,1389.44c-1.46,15.7-7.92,30.37-12.14,45.41-4,14.23-8.27,32.41-23.51,38.67-15.4,6.32-34.7,8.15-50.98,11.55-18.12,3.79-36.3,7.29-54.55,10.42-35.83,6.15-71.91,10.85-108.17,13.5-81.9,5.98-165.46-14.47-237.61-53.47-24.18-13.07-50.35-28.69-69.81-48.37-18.89-19.11-29.14-45.25-39.21-69.68-10.09-24.47-18.68-50.65-16.49-77.42,1.74-21.29,5.52-42.66,10.87-63.33,7.18-27.76,17.73-54.69,34.33-78.23,16.46-23.34,43.61-43.75,66.85-60.12,34.23-24.1,73.28-34.55,113.1-45.33,82.13-22.22,168.71-29.77,252.9-14.99,7.59,1.33,9.95,10.98,3.93,15.79-5.66,4.52-11.69,8.58-17.52,13.12-9.01,7.02-16.55,17.02-23.31,26.25-19.6,26.78-30.61,59.59-35.1,92.28-9.24,67.32,24.9,131.84,78.27,171.38,24.07,17.84,49.48,35.67,77.52,46.68,10.51,4.13,21.17,7.01,32.35,7.95,6.6.55,15-.98,17.64,7.16.84,2.59,1.08,6.07.64,10.77ZM3856.57,1505.26c-12.65,8.49-148.82-2.04-197.52-.41-48.42,1.62-96.28-5.99-144.58,2.56-4.59.81-9.32,1.75-13.88.77-14.42-3.1-16.3-19.1-16.66-31.17-.58-19.53-2.82-37.31-2.2-56.99.64-20.52.26-41.08-1.15-61.56-4.35-63.14,3.19-125.13.81-188.37-1.65-43.73-6.03-94.79-35.05-130.09-12.17-14.8-28.92-33.24-43.72-45.23-9.9-8.02-24.04-13.72-34.98-20.61-24.56-15.46-49.36-31.24-77.58-39.1-14.82-4.13-30.09-6.33-45.31-8.53-60.71-8.76-122.42-10.56-183.43-3.89-49.42,5.49-98.82,15.66-145.97,31.51-1.63.55-3.24,1.1-4.84,1.67-9.81,3.47-19.13,7.31-28.46,12.06-6.46,3.29-16.6,8.13-17.63-3.06-3.98-43.29-2.55-85.53-2.49-128.94.03-21.67-3.79-44.41,6.04-64.72,9.15-18.92,25.71-20.47,44.03-24.81,20.81-4.93,40.78-12.76,61.08-19.37,19.26-6.27,39.64-10.51,59.4-14.91,107.85-24.06,216.43-27.94,326.56-23.48,49.11,1.99,99.37,3.22,146.81,16.5,81.51,22.81,174.03,42.07,242.94,94.07,27.18,20.51,43.9,48.42,67.89,71.99,11.34,11.14,16.2,18.21,20.26,30.88,7.9,24.71,10.85,49.96,13.86,75.57,4.29,36.47,7.45,73.1,8.64,109.81,1.16,35.77-1.9,69.92-3.37,105.56-3.03,73.48,5.81,146.81,4.48,220.28-.35,19.35-.15,38.7.18,58.05.18,10.61,5.71,27.33-4.16,33.96ZM4798.4,1173.69c-1.47,20.62-6.11,40.73-6.86,61.55-1.23,33.98,1.66,68.01,3.8,101.78.93,14.64-.03,29.28-.75,43.93-.75,15.33,4.65,36.39-5.5,50.04-2.47,3.32-5.77,5.93-9.09,8.41-41.53,31.11-94.39,46.45-144.95,56.2-35.54,6.85-71.57,10.58-107.64,13.3-28.34,2.14-56.81,1.2-84.99-2.42-56.34-7.25-113.4-15.57-167.46-34.19-70.37-24.23-133.2-69.09-177.53-129.03-53.24-71.99-56.34-161.51-61.11-247.65-2.63-47.51-3.56-95.16-4.41-142.77-1.02-57.51-.75-115.03-.75-172.54-.52-21.18-2.7-42.71-1.99-63.74.75-22.16-3.4-44.47-.71-66.7.8-6.58,5.76-11.88,12.25-13.2,18.82-3.81,37.56-8.02,56.21-12.62,41.3-10.17,81.58-24.07,122.72-34.36,28.7-7.17,58.03-15.12,86.8-23.25,14.83-4.19,29.66-8.4,44.51-12.5,14.02-3.87,28.2-4.06,42.6-6.24.62-.09,1.31-.18,1.85.14.67.4.89,1.26,1.02,2.03,3.43,19.95,3.11,40.26,4.11,60.42.55,11.07-1.75,38.38,11.21,43.77,11.17,4.64,23.91.17,35.4-1.07,15.21-1.64,30.48-2.84,45.76-3.61,31.3-1.58,62.56.41,93.75-.17,31.72-.59,63.52-.77,95.24-.34l86.56,1.76c9.99.2,18.15,8.11,18.65,18.09.98,19.21.34,38.5-.36,57.71-.85,23.48,3.31,46.81-15.16,64.29-5.99,5.67-16.64,11.75-24.17,15.21-19.95,9.16-43.05,10.32-63.91,17.03-51.28,16.48-102.51,32.14-154.65,45.72-20.53,5.35-41.1,10.57-61.64,15.86-18.01,4.64-38.09,8.15-54.07,18.19-25.66,16.13-16.38,61.41-12.93,86.27,5.4,38.91,18.41,80.75,39.43,114.19,11.3,17.98,27.15,31.16,45.48,41.48,48.41,27.26,114.06,42.26,169.84,38.82,45.06-2.78,90.5-23.75,135.66-19.59,2.16.2,4.48.58,6.01,2.11,1.91,1.93,1.94,4.98,1.74,7.68ZM4960.34,875.19c-1.61-58.61,3.52-117.24,1.03-175.79-.49-11.41-9.24-52.09,10.95-53.32,41.81-4.18,84.47-1.33,126.36-.34,42.4,1,84.82,1.05,127.22.14,1.84-.04,3.68-.08,5.52-.12,22.09-.52,43.87-1.38,65.81-3.88,10.22-1.16,37.51-6.66,43.32,5.89,5.62,12.13,5.14,29.35,6,42.36,1.33,20.2,1.69,40.48,1.41,60.71-.23,16.94-.56,34.14-3.01,50.94-1.86,12.79-8.69,17.64-20.67,19.75-16.72,2.94-33.51,5.08-50.18,8.51-35.44,7.28-70.49,16.4-106.11,22.79-52.36,9.4-105.01,19.28-154.88,38.31-13.07,4.99-39.8,17.29-49.6.18-2.75-4.8-3-10.59-3.15-16.13ZM5347.1,1489.64c-6.79,14.06-25.94,15.38-41.54,14.83-99.38-3.5-198.94-1.74-298.13,5.27-12.6.89-28.18.31-33.93-10.94-2.21-4.33-2.36-9.38-2.44-14.24-1.82-112.39,8.8-323.87-2.62-435.7-1.63-15.95-3.69-32.19-.47-47.9,3.23-15.71,12.9-31.12,28-36.51,8.95-3.19,253.91-44.83,299.08-48.05,7.59-.54,15.11-1.83,22.72-2.02,5.45-.13,18.09-.48,20.79,5.52,3.98,8.85,4.86,19.52,5.48,29.12.97,14.92.95,126.08,2,136.55.1,1.01.19,2.03.28,3.04.79,9.74.75,19.63,1.04,29.38.67,22.69,1.04,110.51,1.25,133.21.41,45.45.15,108.36.33,153.8.09,22.04.28,44.07.71,66.11.12,6.29.19,12.85-2.55,18.51ZM6552.99,691.09c-8.36,29.71-21.38,59.16-26.84,89.15-4.91,26.96-10.15,53.88-18.26,80.06-16.5,53.25-34.84,105.09-50.63,158.52-11.55,39.09-23.11,78.19-34.66,117.28-10.99,37.19-21.98,74.38-32.97,111.57-9.41,31.85-15.62,96.61-26.05,127.8-6.53,19.53-15.82,62.93-19.36,83.49-3.47,20.13-8.74,47.62-34.97,45.6-80.21-6.17-162.81,1.05-243.22,2.35-84.62,1.37-169.24,2.44-253.87,2.67-22.78.06-45.85,1.02-68.61-.1-11.41-.56-11.33-.75-15.56-11.83-3.82-10.03-6.9-20.42-10.36-30.58-13.93-40.89-28.1-138.7-41.47-179.78-14.13-43.42-28.26-86.85-41.5-130.55-10.43-34.43-28.7-90.4-41.71-123.94-14.95-38.55-24.55-80-37.49-119.03-14.86-44.82-28.29-90.53-47.35-133.41-6.66-14.99-10.52-31.57-14.49-47.59-2.93-11.81-27.02-47.78-6.81-53.19,18.62-4.99,41.24.92,60.47.73,26.6-.26,53.22-1.67,79.81-2.3,61.1-1.46,122.24-1.97,183.33.43,14.02.55,27.98-.83,42-1.53,11.44-.57,22.03,6.53,24.91,17.7,1.15,4.45,3.98,14.62,5.45,18.97,16.18,47.92,21.98,101.43,32.79,150.92,11.53,52.76,23.08,105.53,33.06,158.62,9.03,48.01,6.97,132.42,54.7,161.51,19.31,11.77,63.87,14.56,82.7-.03,14.42-11.17,16.98-37.07,21.54-53.64,6.08-22.12,11.65-44.38,16.73-66.75,10.34-45.56,18.65-91.6,24.79-137.92,4.61-34.74,9.95-69.39,16.35-103.85,5.96-32.14,17.79-65.75,18.38-98.25.27-15,3.28-45.36,22.42-48.2,16.42-2.42,33.79-2.13,50.36-2.76,58.33,0,116.81-.63,175.14-2.26,6.86-.19,55.51-1.05,90.47-1.96,4.73-.12,9.22-.25,13.31-.37,11.92-.36,20.71,10.97,17.48,22.45ZM7792.01,1131.16c-3.47,54.72-16.57,109.39-41.79,158.27-65.07,126.07-217.91,190.27-349.3,221.26-139.63,32.93-288.79,29.62-426.76-4.48-90.1-22.26-201.16-56.85-264.38-129.11-104.91-119.9-138.19-295.61-69.06-441.72,15.19-32.1,33.58-63,57.91-89.07,7.06-7.56,14.57-14.68,22.09-21.79,31.65-29.98,61.06-56.21,99.9-76.66,194.31-102.29,449.54-106.04,656.41-41.83,20.87,6.48,42.39,7.77,61.54,18.83,64.79,37.41,126.68,70.65,173.37,132.09,17.97,23.64,42.6,53.4,52.78,81.34,21.57,59.2,31.5,126.64,27.29,192.86ZM7980.03,657.58c-7.73,17.9-18.39,33.63-31.98,47.23-13.59,13.59-29.34,24.25-47.23,31.98-17.89,7.73-37.01,11.59-57.35,11.59s-39.75-3.86-57.65-11.59c-17.9-7.73-33.59-18.39-47.09-31.98-13.49-13.6-24.11-29.34-31.83-47.23-7.73-17.9-11.59-37.11-11.59-57.65s3.86-39.45,11.59-57.35c7.72-17.9,18.33-33.63,31.83-47.23,13.49-13.59,29.19-24.2,47.09-31.83,17.89-7.63,37.11-11.44,57.65-11.44s39.46,3.81,57.35,11.44c17.9,7.62,33.64,18.24,47.23,31.83,13.59,13.6,24.25,29.34,31.98,47.23,7.72,17.9,11.59,37.01,11.59,57.35s-3.86,39.75-11.59,57.65Z"/>
    </g>
  </g>
</svg>